<svg xmlns="http://www.w3.org/2000/svg" style="display:none"><symbol id="icon-bars" viewBox="0 0 24 28"><path d="M24 21v2q0 .406-.297.703T23 24H1q-.406 0-.703-.297T0 23v-2q0-.406.297-.703T1 20h22q.406 0 .703.297T24 21zm0-8v2q0 .406-.297.703T23 16H1q-.406 0-.703-.297T0 15v-2q0-.406.297-.703T1 12h22q.406 0 .703.297T24 13zm0-8v2q0 .406-.297.703T23 8H1q-.406 0-.703-.297T0 7V5q0-.406.297-.703T1 4h22q.406 0 .703.297T24 5z"/></symbol><symbol id="icon-facebook" viewBox="0 0 16 28"><path d="M14.984.187v4.125H12.53q-1.343 0-1.812.562t-.47 1.687v2.954h4.58l-.61 4.625h-3.97v11.858H5.47v-11.86H1.484V9.515h3.984V6.108q0-2.906 1.625-4.508T11.42-.002q2.298 0 3.564.187z"/></symbol><symbol id="icon-twitter" viewBox="0 0 26 28"><path d="M25.312 6.375q-1.047 1.53-2.53 2.61.015.218.015.655 0 2.03-.594 4.055t-1.805 3.883-2.883 3.29-4.03 2.28T8.436 24q-4.234 0-7.75-2.266.547.063 1.22.063 3.515 0 6.265-2.156-1.64-.03-2.938-1.007t-1.78-2.492q.515.08.952.08.672 0 1.328-.173-1.75-.36-2.898-1.742t-1.148-3.21v-.064q1.062.595 2.28.642-1.03-.688-1.64-1.797t-.61-2.406q0-1.376.69-2.548 1.89 2.328 4.6 3.727t5.806 1.554q-.125-.594-.125-1.156 0-2.094 1.476-3.57T17.736 4q2.188 0 3.687 1.595 1.703-.328 3.203-1.22-.578 1.798-2.22 2.782 1.454-.156 2.907-.78z"/></symbol></svg>