<svg style="display: none;"><symbol viewBox="0 0 24 28" id="icon-bars"><title>bars</title><path d="M24 21v2q0 .406-.297.703T23 24H1q-.406 0-.703-.297T0 23v-2q0-.406.297-.703T1 20h22q.406 0 .703.297T24 21zm0-8v2q0 .406-.297.703T23 16H1q-.406 0-.703-.297T0 15v-2q0-.406.297-.703T1 12h22q.406 0 .703.297T24 13zm0-8v2q0 .406-.297.703T23 8H1q-.406 0-.703-.297T0 7V5q0-.406.297-.703T1 4h22q.406 0 .703.297T24 5z"/></symbol><symbol viewBox="0 0 16 28" id="icon-facebook"><title>facebook</title><path d="M14.984.187v4.125H12.53q-1.343 0-1.812.562t-.47 1.687v2.96h4.58l-.61 4.63h-3.97V26H5.47V14.14H1.484V9.514h3.984V6.108q0-2.906 1.625-4.508T11.42-.002q2.298 0 3.564.187z"/></symbol><symbol viewBox="0 0 26 28" id="icon-twitter"><title>twitter</title><path d="M25.312 6.375q-1.047 1.53-2.53 2.61.015.218.015.655 0 2.03-.594 4.055t-1.805 3.883-2.883 3.29-4.03 2.28-5.05.852q-4.233 0-7.75-2.266.548.063 1.22.063 3.516 0 6.266-2.156-1.64-.03-2.93-1t-1.78-2.49q.52.08.95.08.67 0 1.33-.17-1.75-.36-2.9-1.74T1.69 11.1v-.064q1.06.595 2.28.642-1.03-.688-1.64-1.797t-.61-2.4q0-1.37.69-2.542 1.89 2.323 4.6 3.72t5.805 1.557q-.125-.594-.125-1.156 0-2.096 1.475-3.57T17.735 4q2.19 0 3.688 1.595 1.703-.328 3.203-1.22-.578 1.798-2.22 2.782 1.454-.156 2.907-.78z"/></symbol></svg>