<svg xmlns="http://www.w3.org/2000/svg" style="display:none"><symbol id="icon-caret-down" viewBox="0 0 16 28"><path d="M16 11a.99.99 0 0 1-.297.703l-7 7C8.516 18.89 8.265 19 8 19s-.516-.109-.703-.297l-7-7A.996.996 0 0 1 0 11c0-.547.453-1 1-1h14c.547 0 1 .453 1 1z"/></symbol><symbol id="icon-facebook-square" viewBox="0 0 24 28"><path d="M19.5 2q1.859 0 3.18 1.32T24 6.5v15q0 1.859-1.32 3.18T19.5 26h-2.938v-9.297h3.109l.469-3.625h-3.578v-2.312q0-.875.367-1.313t1.43-.438l1.906-.016V5.765q-.984-.141-2.781-.141-2.125 0-3.398 1.25t-1.273 3.531v2.672H9.688v3.625h3.125v9.297H4.5q-1.859 0-3.18-1.32T0 21.499v-15q0-1.859 1.32-3.18t3.18-1.32h15z"/></symbol><symbol id="icon-instagram-square" viewBox="0 0 27 32"><path d="M18.286 16q0-1.893-1.339-3.232t-3.232-1.339-3.232 1.339T9.144 16t1.339 3.232 3.232 1.339 3.232-1.339T18.286 16zm2.464 0q0 2.929-2.054 4.982t-4.982 2.054-4.982-2.054T6.678 16t2.054-4.982 4.982-2.054 4.982 2.054T20.75 16zm1.929-7.321q0 .679-.482 1.161t-1.161.482-1.161-.482-.482-1.161.482-1.161 1.161-.482 1.161.482.482 1.161zM13.714 4.75l-1.366-.009q-1.241-.009-1.884 0t-1.723.054-1.839.179-1.277.33q-.893.357-1.571 1.036T3.018 7.911q-.196.518-.33 1.277t-.179 1.839-.054 1.723 0 1.884T2.464 16t-.009 1.366 0 1.884.054 1.723.179 1.839.33 1.277q.357.893 1.036 1.571t1.571 1.036q.518.196 1.277.33t1.839.179 1.723.054 1.884 0 1.366-.009 1.366.009 1.884 0 1.723-.054 1.839-.179 1.277-.33q.893-.357 1.571-1.036t1.036-1.571q.196-.518.33-1.277t.179-1.839.054-1.723 0-1.884T24.964 16t.009-1.366 0-1.884-.054-1.723-.179-1.839-.33-1.277q-.357-.893-1.036-1.571t-1.571-1.036q-.518-.196-1.277-.33t-1.839-.179-1.723-.054-1.884 0-1.366.009zM27.429 16q0 4.089-.089 5.661-.179 3.714-2.214 5.75t-5.75 2.214q-1.571.089-5.661.089t-5.661-.089q-3.714-.179-5.75-2.214T.09 21.661Q.001 20.09.001 16t.089-5.661q.179-3.714 2.214-5.75t5.75-2.214q1.571-.089 5.661-.089t5.661.089q3.714.179 5.75 2.214t2.214 5.75q.089 1.571.089 5.661z"/></symbol><symbol id="icon-linkedin-square" viewBox="0 0 24 28"><path d="M3.703 22.094h3.609V11.25H3.703v10.844zM7.547 7.906q-.016-.812-.562-1.344t-1.453-.531-1.477.531-.57 1.344q0 .797.555 1.336t1.445.539h.016q.922 0 1.484-.539t.562-1.336zm9.141 14.188h3.609v-6.219q0-2.406-1.141-3.641T16.14 11q-2.125 0-3.266 1.828h.031V11.25H9.296q.047 1.031 0 10.844h3.609v-6.062q0-.594.109-.875.234-.547.703-.93t1.156-.383q1.813 0 1.813 2.453v5.797zM24 6.5v15q0 1.859-1.32 3.18T19.5 26h-15q-1.859 0-3.18-1.32T0 21.5v-15q0-1.859 1.32-3.18T4.5 2h15q1.859 0 3.18 1.32T24 6.5z"/></symbol><symbol id="icon-pause" viewBox="0 0 24 28"><path d="M24 3v22c0 .547-.453 1-1 1h-8c-.547 0-1-.453-1-1V3c0-.547.453-1 1-1h8c.547 0 1 .453 1 1zM10 3v22c0 .547-.453 1-1 1H1c-.547 0-1-.453-1-1V3c0-.547.453-1 1-1h8c.547 0 1 .453 1 1z"/></symbol><symbol id="icon-play" viewBox="0 0 22 28"><path d="M21.625 14.484L.875 26.015c-.484.266-.875.031-.875-.516v-23c0-.547.391-.781.875-.516l20.75 11.531c.484.266.484.703 0 .969z"/></symbol><symbol id="icon-twitter-square" viewBox="0 0 24 28"><path d="M20 9.531q-.875.391-1.891.531 1.062-.625 1.453-1.828-1.016.594-2.094.797Q16.515 8 15.077 8q-1.359 0-2.32.961t-.961 2.32q0 .453.078.75-2.016-.109-3.781-1.016t-3-2.422q-.453.781-.453 1.656 0 1.781 1.422 2.734-.734-.016-1.563-.406v.031q0 1.172.781 2.086t1.922 1.133q-.453.125-.797.125-.203 0-.609-.063.328.984 1.164 1.625t1.898.656q-1.813 1.406-4.078 1.406-.406 0-.781-.047 2.312 1.469 5.031 1.469 1.75 0 3.281-.555t2.625-1.484 1.883-2.141 1.172-2.531.383-2.633q0-.281-.016-.422.984-.703 1.641-1.703zM24 6.5v15q0 1.859-1.32 3.18T19.5 26h-15q-1.859 0-3.18-1.32T0 21.5v-15q0-1.859 1.32-3.18T4.5 2h15q1.859 0 3.18 1.32T24 6.5z"/></symbol></svg>