<?xml version="1.0" encoding="utf-8"?>
<!-- Generated by IcoMoon.io -->
<!DOCTYPE svg PUBLIC "-//W3C//DTD SVG 1.1//EN" "http://www.w3.org/Graphics/SVG/1.1/DTD/svg11.dtd">
<svg version="1.1" xmlns="http://www.w3.org/2000/svg" xmlns:xlink="http://www.w3.org/1999/xlink" width="22" height="28" viewBox="0 0 22 28">
<path fill="#444444" d="M20.281 20.656q0 0.625-0.438 1.062l-2.125 2.125q-0.438 0.438-1.062 0.438t-1.062-0.438l-4.594-4.594-4.594 4.594q-0.438 0.438-1.062 0.438t-1.062-0.438l-2.125-2.125q-0.438-0.438-0.438-1.062t0.438-1.062l4.594-4.594-4.594-4.594q-0.438-0.438-0.438-1.062t0.438-1.062l2.125-2.125q0.438-0.438 1.062-0.438t1.062 0.438l4.594 4.594 4.594-4.594q0.438-0.438 1.062-0.438t1.062 0.438l2.125 2.125q0.438 0.438 0.438 1.062t-0.438 1.062l-4.594 4.594 4.594 4.594q0.438 0.438 0.438 1.062z"></path>
</svg>
