<svg xmlns="http://www.w3.org/2000/svg" width="27" height="32"><path fill="#444" d="M16.375 16.161q0-.464-.107-1.143H9.804v2.357h3.875q-.054.429-.295.893t-.67.946-1.188.795-1.723.313q-1.768 0-3.018-1.268T5.535 16t1.25-3.054 3.018-1.268q1.643 0 2.732 1.054l1.857-1.804q-1.929-1.786-4.589-1.786-2.857 0-4.857 2.009t-2 4.848 2 4.848 4.857 2.009q2.946 0 4.759-1.875t1.812-4.821zm6.161.821h1.946v-1.964h-1.946v-1.964h-1.964v1.964h-1.964v1.964h1.964v1.964h1.964v-1.964zm4.893-9.553v17.143q0 2.125-1.509 3.634t-3.634 1.509H5.143q-2.125 0-3.634-1.509T0 24.572V7.429q0-2.125 1.509-3.634t3.634-1.509h17.143q2.125 0 3.634 1.509t1.509 3.634z"/></svg>