<?xml version="1.0" encoding="utf-8"?>
<!-- Generated by IcoMoon.io -->
<!DOCTYPE svg PUBLIC "-//W3C//DTD SVG 1.1//EN" "http://www.w3.org/Graphics/SVG/1.1/DTD/svg11.dtd">
<svg version="1.1" xmlns="http://www.w3.org/2000/svg" xmlns:xlink="http://www.w3.org/1999/xlink" width="27" height="32" viewBox="0 0 27 32">
<path fill="#444" d="M16.375 16.161q0-0.464-0.107-1.143h-6.464v2.357h3.875q-0.054 0.429-0.295 0.893t-0.67 0.946-1.188 0.795-1.723 0.313q-1.768 0-3.018-1.268t-1.25-3.054 1.25-3.054 3.018-1.268q1.643 0 2.732 1.054l1.857-1.804q-1.929-1.786-4.589-1.786-2.857 0-4.857 2.009t-2 4.848 2 4.848 4.857 2.009q2.946 0 4.759-1.875t1.812-4.821zM22.536 16.982h1.946v-1.964h-1.946v-1.964h-1.964v1.964h-1.964v1.964h1.964v1.964h1.964v-1.964zM27.429 7.429v17.143q0 2.125-1.509 3.634t-3.634 1.509h-17.143q-2.125 0-3.634-1.509t-1.509-3.634v-17.143q0-2.125 1.509-3.634t3.634-1.509h17.143q2.125 0 3.634 1.509t1.509 3.634z"></path>
</svg>
