<svg xmlns="http://www.w3.org/2000/svg" width="24" height="28"><path fill="#444" d="M3.703 22.094h3.609V11.25H3.703v10.844zM7.547 7.906q-.016-.812-.562-1.344t-1.453-.531-1.477.531-.57 1.344q0 .797.555 1.336t1.445.539h.016q.922 0 1.484-.539t.562-1.336zm9.141 14.188h3.609v-6.219q0-2.406-1.141-3.641T16.14 11q-2.125 0-3.266 1.828h.031V11.25H9.296q.047 1.031 0 10.844h3.609v-6.062q0-.594.109-.875.234-.547.703-.93t1.156-.383q1.813 0 1.813 2.453v5.797zM24 6.5v15q0 1.859-1.32 3.18T19.5 26h-15q-1.859 0-3.18-1.32T0 21.5v-15q0-1.859 1.32-3.18T4.5 2h15q1.859 0 3.18 1.32T24 6.5z"/></svg>