<svg xmlns="http://www.w3.org/2000/svg" width="24" height="28"><path fill="#444" d="M20 9.531q-.875.391-1.891.531 1.062-.625 1.453-1.828-1.016.594-2.094.797Q16.515 8 15.077 8q-1.359 0-2.32.961t-.961 2.32q0 .453.078.75-2.016-.109-3.781-1.016t-3-2.422q-.453.781-.453 1.656 0 1.781 1.422 2.734-.734-.016-1.563-.406v.031q0 1.172.781 2.086t1.922 1.133q-.453.125-.797.125-.203 0-.609-.063.328.984 1.164 1.625t1.898.656q-1.813 1.406-4.078 1.406-.406 0-.781-.047 2.312 1.469 5.031 1.469 1.75 0 3.281-.555t2.625-1.484 1.883-2.141 1.172-2.531.383-2.633q0-.281-.016-.422.984-.703 1.641-1.703zM24 6.5v15q0 1.859-1.32 3.18T19.5 26h-15q-1.859 0-3.18-1.32T0 21.5v-15q0-1.859 1.32-3.18T4.5 2h15q1.859 0 3.18 1.32T24 6.5z"/></svg>