<svg xmlns="http://www.w3.org/2000/svg" width="26" height="28" viewBox="0 0 26 28"><path fill="#444" d="M25.312 6.375q-1.047 1.53-2.53 2.61.015.218.015.655 0 2.03-.594 4.055t-1.805 3.883-2.883 3.29-4.03 2.28-5.05.852q-4.233 0-7.75-2.266.548.063 1.22.063 3.516 0 6.266-2.156-1.64-.03-2.93-1t-1.78-2.49q.52.08.95.08.67 0 1.33-.17-1.75-.36-2.9-1.74T1.69 11.1v-.064q1.06.595 2.28.642-1.03-.688-1.64-1.797t-.61-2.4q0-1.37.69-2.542 1.89 2.323 4.6 3.72t5.805 1.557q-.125-.594-.125-1.156 0-2.096 1.475-3.57T17.735 4q2.19 0 3.688 1.595 1.703-.328 3.203-1.22-.578 1.798-2.22 2.782 1.454-.156 2.907-.78z"/></svg>