<svg xmlns="http://www.w3.org/2000/svg" viewBox="0 0 1200 800" width="1200" height="800"><path d="M612.3 324c48-3.8 93.9 14.1 132.3 42 49.5 36 91.5 87.5 119.9 141.7l9 7.1a404.4 404.4 0 0144.9 41.6c7.6 8.5 27.7 29 19 42a15.4 15.4 0 01-8 5.4c-8.4 3-17.3 4.6-25.7 8.2a63.7 63.7 0 00-27.8 20c-1.9 2.6-2.4 5.8-5 7-2.6 1.2-7.7.7-10.6 1l-17.8 1.8c-13.9 1.3-28.4 1.5-42 4.8l-62.6 15.5c-12.8 3.2-27.6 4.9-39.7 10.1-18.1 7.8-35.4 19.1-52.7 28.5l-25.2 13.5c-4 2.2-6.9 2.3-11.7 2.6l-34.6 2.7c-5.6.4-8.2 2.7-9-3l-8-61.3-4.3-32.5c-.2-2-.2-11.5-1.7-12.7-1-.7-6.9.8-8 1l-15.7 1.9-33.9 4.2c-1 0-6 0-6.6.8-.6.8.6 5.9.7 7l3.6 34.2c.2 1.3 1.8 7.5 1 8.5-.6.8-5 .9-5.8 1l-32.7 5.4c-7.8 1.3-18 1.2-25.5 4.1-4.2 1.7-8.4 6-12 8.7L362.7 726c-8 6-19 4.4-28.8 5.2l-113.4 8.6.3-10.6 1.5-56.1.6-24.5c0-1.5-.6-6 .4-7.2 1.4-1.5 7.4-2.2 9.3-2.7l18.8-5.6 55-16.3 54.5-16.1 18.6-5.5c1.5-.5 6.5-1 7.5-2.2 1.2-1.6.7-8 .9-10a370 370 0 014-28.2c12.4-67.5 41.3-136 94.7-181A221.4 221.4 0 01612.3 324z" fill="#90b1d3"/><path d="M1094 18h1c22.5.7 42.5 15.3 58 30.7a68.4 68.4 0 0117.9 27 71 71 0 01-.4 37.4 922.9 922.9 0 01-22.9 79.6c-4.3 12.8-10.5 25.4-13.8 38.5-2.7 10.8 8.6 18.6 9 29.7a27.3 27.3 0 01-17.4 25.8c-4.4 1.7-9.7.2-13.8 2-3.7 1.6-5 6.3-5.7 10-1 4.8-.8 9.8-.6 14.8.2 3-.6 8 1 10.7 1 1.8 2.8 2.5 4.4 3.7 2.2 1.8 3.7 4 5.6 6 3.1 3.2 6.2 5 7 9.9l1.4-3.3c2.4 4.3 4.1 6.3 1.9 10.4 7-.6 11 12 12.8 16.7 3.4 8.8 5.7 17.9 9 26.6 4.6 12 10.6 23.9 13.5 36.4 2.5 10.6 4.4 21.4 6.6 32 1.3 6 2.3 12.1 4.6 17.8.9 2.2 2.5 3.7 3.5 5.7 1.4 2.7.8 4.1.9 7 0 5.4 3.4 8.8 4.5 14l3.1 16.4c2.3 11 6.5 22.1 7.5 33.3 1.2 13 3.7 25.8 5 38.9 1.1 11.3-.8 23.5 1.6 34.5 2.1 9.8-.5 18.7-1.4 28.4-.3 2.4 3.5 17-2.6 14.3 1.2 3.4 2.8 5 2.9 8.9 0 3.5-.9 7.1-1.6 10.6-1.5 6.6-2.4 13.9-5.2 20-3.2 7.1-8 8-14.7 10.4-4.5 1.6-12.5 7.4-16 1.2-2.2 6.4-6.3 2-10.9 1.6 0 0-2.6 1-3.1 1-1.6.3-3.5-.5-5.2-.6a41.5 41.5 0 00-11.8 1c-9 1.9-17.8 4.5-27 5.8-18 2.5-35.5 1.3-53.5 2.4-35.2 2.2-71 .4-106-.6-3.9 0-8 .5-11.7-.1-4-.6-4.9-2.5-8-4.4-5.2-3.2-11-.1-16.4 1-15.8 3.4-32.4 3.7-48.3 7-32.5 6.6-62.4 19.8-93.5 30.9-13.5 4.8-29.3 12.6-43.8 12.9-17.6.4-13.5-17-10.2-28.1-10.2 2.7-26.2 15-36.5 7.9-12.4-8.6 3.3-22.8 4-32.8-22 4.6-47 14.6-69.3 6.4-4.3-1.5-8-4.8-12.7-5.4-4.8-.5-9.9 1.2-14.7 1.1-11 0-21.8-1.5-32.9-.2-24.6 3-49 4.7-73.8 5.4-25 .7-50 2.1-75 2-12.8 0-25.7-1.5-38.4-.8-5 .3-15.7 3.9-19.2-1.2-3.5 4.3-6.5 1.4-11 1.9.9 0-2.3 1.8-2.8 2-2.4.8-4.6.5-7 .5-6.6 0-12.8 3-19.3 2.7a12.3 12.3 0 01-4.4-1c-.3-.2-.2-1.7-.8-1.8-3.2-.7-2.3 1.3-4.4 2.3-2.2 1-5.6-.7-4.3 2.7-6.1-.3-11.9 1.8-17.5-1.9 2.7 5.8-6.5 1-9 1-4-.2-7.4 1.8-11.4 2.2-4.8.6-9.6-1.7-14.3-.3-3.6 1-4.9 3.6-8.7 2.3a13 13 0 01-6.8-6.1c-2.2-3.7-2.5-5.3-7.7-5.3-3.9 0-7.8.7-11.7.7-4.5 0-9.4-.5-13.5 1.7-4.4 2.3-7 5.8-12 7.6-22 8-46 6-69 5.8-9.7 0-16.8.8-19.6-10.2-2.3-9.4-3.2-19.1-5.4-28.5a114.5 114.5 0 00-11.6-32.6c-5.8-10-10.6-20.3-15.7-30.7-10.4-21.6-25-40-41.3-57.5C7.4 587 .3 579.6 0 570a40.2 40.2 0 018.3-23.5c4.2-6 11.3-12.6 19.3-11.2 4.8.8 7.9 4.7 11.5 7.6a44 44 0 0012.9 7c11 4.1 20.2 8.5 29.8 15.5a215.3 215.3 0 0127 23.5c16 16.4 32.4 33.5 41.6 54.8 3.6 8.3 6 16.4 8.4 25.1 2.4 8.5 9 6.2 16.5 5 9-1.5 18.2-2.3 27.3-3.3 3.4-.3 8.3-.5 10.3-3.7 2.3-3.6-.3-8.2-.5-12-.1-1.9.5-3.4.7-5.3.2-2.2-.5-4.2-.5-6.4a14.8 14.8 0 015.9-11.7c6.9-5.4 16.8-8.6 25-11.5 11-4 23-6 34.3-8.9 12.9-3.2 25.8-6 38.7-9 12.7-2.9 25.4-5.8 38.2-8 7.5-1.4 15.7-.9 23-3.3 7.7-2.5 6.4-10.3 6.4-17.2a233 233 0 013-34.4c3.6-24 12-47.5 19.8-70.4 7.4-22 16.6-43.3 31.7-61.2a266.7 266.7 0 0151.7-46.1c19.6-13.5 41.4-23.3 61.9-35.4-4.5-3.4-9.8-6.3-12.4-11.6-2.9-5.9-1.7-13-1.5-19.4.1-7.1.3-13.4 2.9-20.2 1.4-3.8 6.8-10.9 6-15-1.4-6.8-16.4-11.8-21.9-14.6-8.6-4.4-17.2-8.9-25.2-14.4a63.1 63.1 0 01-19.4-20 41.1 41.1 0 01-3.2-7.3c-1-2.8-.3-3.8-3.1-4-4.6-.3-11.3 4.2-15.1 6.2C439.7 216 418.2 230 395 229c-8.4-.3-17.8-3-20.8-11.7-3.9-11.5 4.3-23.4 11.4-31.8-14 2.2-39.7 9-50.7-3.4-7.3-8.3-1.8-21.4 4.4-28.6 8.1-9.5 19.7-15.3 30.4-21.4-13.1-5-27.7-8.2-39.2-16.6-11-8-9.7-20.3-1-29.7 9.4-10.1 25.7-15.3 38.5-19 15.7-4.7 31.4-4.3 47.6-4 29.1.5 54.1 11.3 78 27.5a305.7 305.7 0 0136.3 28.2c10.5 9.8 21.7 18.8 32 28.7 10 9.5 18 21.4 28.5 30.3 9 7.6 18.9 18.3 30.3 21.7 12.1 3.5 23 9.4 35.3 13 13.8 4 25.8 10.6 38.6 17 54 26.6 111.8 44 168.7 63.1 29 9.8 58.4 16.7 88 24.2 15 3.8 28.8 5.8 44.2 5.1a56 56 0 0110.4.2c2.6.4 4.5 1.4 6.8-.2 3.3-2.2 4.6-7.9 6.5-11.2-11-3.4-21.6-7-26.6-18.2-3.2-7.1-4.8-15.4-6.2-23-.7-4-.7-8.2-1.4-12.2-.3-2.3-1.4-4.7-1.3-7-.3 1.3-8.4-2.9-9.6-3.7-4.6-3-5.4-9.1-5.4-14.2 0-5.9 1.8-12.2 5.8-16.7a14.5 14.5 0 016.8-4.4c2-.5 4.5.2 6.2-.4 7.5-2.5 8.3-21.1 9.4-28 2.4-14.9 4.7-29.2 9.8-43.5a423.8 423.8 0 0135.4-75.4c12.2-20.4 24.4-45.3 51.2-45.6zM862.6 646.4c-10.8 1.8-21.2 5.7-31.7 9-9.7 3-19.6 4.9-29.7 6.9-20 3.9-40.3 7.5-60 12.6-5.6 1.5-8.5 4.7-13.3 7-3.6 1.7-7 0-10.7-.2-8.1-.3-17.1 2.3-25 4.3a225.5 225.5 0 00-51.4 21.7c-1.5.8-11.6 5.4-11 7.3.3 1.6 13.1-2.6 15.2-3 10.3-1.5 20.4-4.7 30.6-6.8 8.5-1.6 17-2.7 25.3-4.6 9.4-2 29.2-9.2 30 6.2.9 16.7-17.5 21.8-28.5 29.6 1.2 2 19-5 21.1-5.6 7.5-2.5 14.5-6.8 22.2-8.7 13.4-3.3 11.7 11.5 4.4 18-8.2 7.3-21.8 9.5-26.3 20.7 6 2.2 13.7-1.8 19.2-3.8l21.6-7.8c16.3-5.6 31.7-13.4 48-18.8 33.4-11 68.8-14.1 103.8-16-3.1-12.2-6.5-24.2-9.3-36.4-1.2-5.2-2.3-10.4-3.2-15.7-.7-3.6-.1-12.4-2.7-15.3-3-3.5-11 1.4-15.4 1.3-4.3 0-7.4-2.3-11.3-3-3.8-.6-8.2.4-11.9 1zm-628.7 70c0 5.7-1 12.7 6.6 13.4 6.1.6 18.2 1.3 23-3.1-4.6-2.3-10-2.7-15-4a59.7 59.7 0 01-14.6-6.3zm125.5-105.4c-2.3 0-6.2 2.6-8.3 3.3-3.9 1.4-7.8 2.5-11.8 3.5-11.8 3.1-27 3.6-32.5 16.3-2.7 6.4-4.6 22.7-14 22.6-8.4 0-13.4-12.1-19.4-16.4-6.2-4.5-16-1.4-22.7.5-6.7 2-17.2 4.5-16.5 13 .6 6.2 1.7 11.9 1.6 18.2 0 8-.7 16-.7 24 4.7-6.5 8.9-19.6 17.3-22.2 8.5-2.7 13.3 12.2 15.6 18 2.7 7 6.1 15 6.4 22.6 0 2.4-1.4 9 .2 11 1.5 1.8 7.2.5 9 .3 11.5-1.2 22.8-2.7 34.3-3.6 5.8-.6 7.4-1.8 6.9-8.2a67.1 67.1 0 010-14.7c2.8-22.2 16.5-42.6 39.7-46.4 14-2.4 30.2-.7 44.2 1.6 5.3.8 11.2 3.4 16.6 3.2 4-.2 2.8-.4 3.6-4.2a12.5 12.5 0 013.8-6.7c1.6-1.5 3.6-.7 5.1-2.6 1.1-1.3 1-3.2 1.5-4.8 1-3 2.8-7.2 6.4-8 5.8-1.3 12 6.5 15 10.5 3 4.1 3.8 16.5 8.7 18.1 5.6 1.9 12.3-5.5 13.5-10 1.6-6.3-.4-13-1.4-19.3 0-.4-.3-4.5-.6-4.8-.8-.7-7-.5-8.1-.5-5.4-.3-10.8-.3-16.2-.3a610 610 0 01-62.7-4.4c3 5 8.2 13.1 2.9 18.4-4 3.9-11.1 2-16.1 2.7-7 1.2-18.9 7.8-25.6 3-9.5-7 1.2-18.8 4.7-25.3.8-1.4 3.6-6.3 2.4-7.9-1-1.4-1.3-.5-2.8-.5zm-157.4 76.5c-4.8 1.5-9.7 3-14.6 4-5.8 1.3-14.8 0-17.6 6.4-2.1 4.8-1 12.6.7 17.5 2 5.5 6.6 6.9 12.2 7.3 6.4.5 13-.5 19.3-1.4a58.5 58.5 0 017.7-1c1.5 0 4.6 1.4 6 .3 1.7-1.5.5-9.8.4-11.8-.4-5-1.3-9.8-1.6-14.8-.1-3.5 1.2-8.4-3-9.1-2.6-.5-7.2 2-9.5 2.6zm389.7-97.8a58.3 58.3 0 01-10.9 1c-2.2 0-5-.8-7 .5-3.9 2.3-3.3 8.3-3.2 12 .2 4.6.6 9.2 1 13.8.5 4.3 3 11.4-.5 15.2-2.3-2.6-3.5-11.1-8-10.8-5.1.3-2.8 8.4-2.3 11.2 2.4 16 5.2 31.9 7.5 47.8 1 7.6 2.4 15.2 3 22.8.5 5.1.7 9.7 6.4 10.8 5.3 1 11.3-.7 16.6-.9 5.5 0 8.7-.5 11.9-5.4-7.6-1.7-19.7-.7-24-8.7-5-9.4 5.6-17.8 10.8-24.3 4-4.9 12-21.2 19.4-11.5 2.7 3.5 3.2 8.8 4.5 12.9 2.2 6.6 4.9 13.1 7.5 19.6 24-12.4 48.5-23.5 74.6-30.5-6.6-11.2-14.9-21.3-19.9-33.5-5.6-13.7-10.2-27.7-15.9-41.4-9 5.3-18.7-7.5-27.7-8-14.3-.8-29.9 5-43.8 7.4zm-141.8 92.1c-5 3-12.3 8.7-13.5 14.7-2 10.3 9.7 3.4 13.3 1.1 7.6-4.7 15-6.2 23.7-3.3 11.2 3.8 21.4 10 33.4 5.3 6-2.4 19.2-7.5 15.6-16.6-2.4-6.3-9.6-.9-13.4 1.4-10 5.9-18.2 2.1-28.2-2.1s-21.2-6.3-31-.5zM96.3 629c-4 5.7 4.1 4.4 7.7 5 7.4 1.1 15 7 13 15.5-2 8.1-9.8 13.3-11.3 21.8-1.3 7.4 0 16.8 7 20.8 4 2.3 12.8 3.2 16.8.6 6.2-4-1.4-10-5.5-11.9-5.4-2.6-9.8-4-7-11 3.2-8.3 9.5-14.7 9-24.3-.6-8-4.7-17-12.4-20.3-5.5-2.4-13.6-1.5-17.3 3.8zm544-24.3c6.9-.3 7.2 8 6.8 12-.5 5.7.5 11.6.7 17.3.1 7.4 1.7 31.7-11.5 28.1-8.4-2.3-15.4-10.4-22.2-15.6-6.2-4.8-22.1-10.6-23.2-19.6-1.1-10.3 11.4-12.2 18.6-13.9 10.2-2.3 20.2-7.9 30.8-8.3zM606.7 334a137 137 0 00-32.1 6.3c-7 2.5-17.9 4.2-22.9 10.3-4.3 5.2-2.4 12.6-3.8 18.8-1.9 8.3-7.6 7.1-13.2 2-6.7-6.3-8.6-10.8-18-5-19.1 12.1-34.4 30-49.6 46.5 11.8 3.6 34.9 4.5 38.8 19.2 2.2 8-4.3 14-10.1 18.3-7.5 5.7-15.3 11-22.6 16.8-6.9 5.6-22.2 27.5-26.5 8.2-2.7-12 2.3-24.3.2-36-9.3 14.9-18.7 29.8-27.2 45.2a163.4 163.4 0 00-15 41.7c5.5.3 11.1-2.4 16.5-.8 5.1 1.5 7.5 6.4 7.9 11.5.6 8.5-3.3 17.2-5.3 25.5-1.4 5.6-3 18.4-9.8 20.3-7.9 2-12.8-10-16.3-15-3.3 5.2-3.3 12.7-3.7 18.5-.4 4-2.6 11.6 1.9 13.8 4.2 2.1 13.2-.5 17.7-.7 8.4-.3 17-1 25.5-.8 8 .3 19.6 4.5 22.7-5.3 2.1-6.6 4-30.5 15.3-17.6 5 5.8 9 12.4 13.8 18.2 4.9 6 9.3 6.4 16.6 6 14.4-.5 28.5 2.2 42.7 4.5 12.4 2 10.7-8.6 10.6-18-.3-14.5 2.6-29.7 4.1-44.1a432.4 432.4 0 0123.2-100.8c-9.8-3.3-27.5 10.2-34.8 0-6-8.5 1.7-20.2 4.8-28.1 4-9.9 6-20.2 12.3-29 2-2.7 4.9-6.4 8.8-5.5 3.3.8 4.6 5 6.5 7.5 6 7.6 13.6 13.4 19 21.7a45.5 45.5 0 016.8 16.5c.3 1.7-.1 5 1 6.4 3.6 4.3 15 4.2 20 6.9 17.2 9 23.2 35 29.8 51.4a81 81 0 014.8 14.2c.7 3.3.6 7.5 2.4 10.4 3.9 6.4 16 .7 21.9-.3 9.9-1.7 19.8-3.3 29.7-4.7 6.1-.8 15-3 19.6 2.4 4.8 5.5 2 14.3-.4 20.3-4 9.8-9 19.2-13 28.8-3.4 7.8-5 17.7-11.4 23.7-5.5 5.1-14.7 6.6-21.1 2.4-3.7-2.4-13.3-25.6-15.8-24.5 4.6 17.9 11.2 36.1 18.2 53.2 2.2 5.3 5.9 16 11.3 18.8 4.5 2.4 14.8-2 19.4-3 4.4-.7 13-4.3 17.2-1.7 5 3.2 5.7 11.6 6.3 16.8.4 3.9-.4 6.8 4.3 6.6 3.4-.1 6.7-1.8 10-2.6 7.3-1.9 15-3.1 22.5-4.3l52.3-8.5c15-2.5 29.8-2.5 43.4-9.6 6.8-3.6 14.7-4.7 22-7.1a111.5 111.5 0 0122-4.9 582 582 0 0049.2-7.2l26.8-5.8c8-1.9 15.6-4.8 23.5-6.6 6.6-1.5 12-.3 14.8-7.8 2-5.4 1.6-11.4 2-17 2.4-25.5-6.5-51.3-8.4-76.7-.5-8.3-.7-16.5-1.4-24.8-.2-3.7 0-14.7-4.5-16.7-.4 3 0 8-3.5 9.5 1.7-.7-.5 8.2-.6 9.1-.5 3.6.7 7.4 0 10.9a2 2 0 01-.6 2.8 4.3 4.3 0 00-1.3 1.9c0 2.5.6 1 .7 1.8.3 8.6-1.1 17.5-.5 26.3.7 9.2 2.7 18.3 4.3 27.5 1.4 8.2 3 16.4 4.1 24.6.8 5.8 1.4 12.5-1.7 17.7-5.9 10-23 9-33 10.6-16.5 2.7-33.1 5.2-49.7 7.5-6.4.9-12.9 2.9-19.3 3-7 0-10.6-2.7-15-7.8-8.7-10.2-14.4-21.9-21.7-33-4.1-6.3-7.5-8-14.4-9.9-6.4-1.8-11.6-6.4-16.8-10.3-11-8.2-25-17-32.3-29.1-7.5-12.7 3.1-16.9 13.3-20.3-2.5-6.6-7.3-12-11.3-17.6-4.6-6.5-8.7-13.2-13.7-19.4-10-12.7-20-25.3-29.7-38.2-8.3-11-16.7-21.5-27.3-30.4-10.6-9-22.5-16.3-34.2-23.8-6-4-16.8-14-24.5-13-7.5 1-10.5 15-12.4 20.8-2.1 6.8-2.9 16.2-7.9 21.4-7.3 7.8-15-4.4-18.4-10l-19.5-31c-2.9-4.8-7.1-9.3-8.8-14.6 0 0-.9-4.7 0-4-1.9-1.9-8.7-2.2-11.2-2.5h-.2a84.6 84.6 0 00-16 .4zm-71.6 290.2c-6.1 0-12.2.7-18.3 1.2-5.4.4-10.3-.4-15.7-.7-6.6-.4-9.9.3-8.4 7.1 1.1 5 2.5 11.7 7.6 13.8 6.9 2.8 16.2 2.4 23.6 3.5l16.2 2.4c3.5.6 5.4 1.2 7-2.8 1.4-3.4.5-8 0-11.4-.3-2.7 0-7.5-1.4-9.9-1.9-3.5-6.8-3.1-10.6-3.2zM821.4 556c9 8.3 15 18.8 21.9 28.8 4.1 6.1 12.3 15.9 6.4 23.3-5 6.3-16.8 4.8-23.8 5.1-11 .5-20.1 5.5-30.6 8.1-26.6 6.5-4.5-38-.9-47.4 2.6-6.5 5.3-13 8.4-19.3 1.4-2.8 4.2-11.1 7.7-12.2 5-1.6 7.7 10.7 10.9 13.6zm-227.9-93.7c-4.2 8-4.9 19.2-6.9 28-6.1 27-9.7 54.3-12.5 81.8 14-5.6 28.7-6 43.5-7.3 10.7-1 20.5-2.1 31.2-1.7 1.8.1 7 1 8.5-.5 2-2-.4-7.9-1-10-3.2-12-4.7-24.2-8.3-36-3.8-12-8.4-24-13.2-35.7-3.6-8.5-8.4-16.8-17-21-7.6-3.7-19.6-6.5-24.3 2.4zM536 514.7c5.7 8.7 13 16.3 18.6 25 4 6.2 8.7 17.7-.9 21.7-3.3 1.3-7.3.7-10.8.8-5.5.1-10.9.6-16.3.4-5.2 0-10.3-.7-15.4-1-3.3-.1-7.4.1-10.2-1.8-7.7-5-2.1-15.2.3-21.7 2.7-7 6.2-13.5 9.6-20 2.4-4.6 6-13.9 11.3-15.7 6.4-2.2 11.1 8.3 13.8 12.3zm279-98.3a395.2 395.2 0 0134 47.1l14.9 24.2c3.2 5.3 5.6 12 9.5 16.9 8.9 10.9 11.4-13 12.7-18.2 4.8-19 10.8-38 16.1-57h-5.4c-21.8 0-42.7-.4-63.9-6.8-6-1.8-11.4-5.8-17.8-6.2zm-46 3.7c7 5 51 35 32.5 46.5-3.8 2.3-10.1 1.3-14.4 1.6-5.6.4-11.2 1-16.7 2-7.1 1.2-14 3.5-21.2 4.6-5.7.9-13.2 2-18.3-1.6-8.3-5.8-3.2-17.3-.5-24.7 4-10.5 7.7-24.6 17.4-31 2.3-1.4 5-6.6 7.5-7 3.8-.8 11 7.5 13.8 9.6zm243.3-247.7c-3.3 2.5-3.5 7.8-4.3 11.5-3 12.5-7 24.8-9.4 37.4a132 132 0 00-1.9 37c.8 8.4.9 18.7 6 25.8 6 8.6 18 8.1 27.1 10.6 8.8 2.5 17.5 10 8 17.8-3.5 2.8-8 3.2-11.3 5.9a31.8 31.8 0 00-8.3 14c-1.4 4-1.4 4.8 3 6.2a15.3 15.3 0 006 .9c4.8-.4 9-3.6 13-6 10-5.9 21.7-13.9 33.8-14.8 3.9-.3 8.2 1.3 12 0 3.5-1.1 2.4-1.8 3-5.1 2.4-12.9 3.4-25.5 10-37.2 3.2-5.7 11.8-17.5 17.5-8.5 2.4 3.7 3.3 5.5 8.6 4.4 4.4-1 9.1-4.4 8.3-9.4-.8-4.7-7-8-10.8-10-5-2.7-8.5-2.4-14-3-15-1.9-4.5-23.8-2.3-32 1.3-5.2 3-11.9-.6-16.5-5.5-7.1-17.3-4.8-24.7-3.8a54.6 54.6 0 01-31.2-2.5c-10.2-5-14.6-16.1-24.1-21.6-3.6-2-9.8-4-13.4-1.1zm44.8 90.5c7 0 3.6 10 1.7 13.4-4.1 7.2-12.9 10-20.6 7.3-6-2-12.6-11.3-3.1-12.8 4.6-.8 9-.5 13.4-2.6 2.5-1.3 5.7-5.2 8.6-5.3zm-17.8-53.7c4.4 2.7-3.1 19.7-4.4 23.2-2 5.6-3.9 9.3 1.4 13.6 3.6 3 10.8 5.7 7.4 11.7-3.2 5.6-14.1 3.2-18.6.5-6.4-4-4.5-11.6-3-17.8.9-4 9.4-36 17.2-31.2zM345.9 97c13.6 5.8 27.5 11 41.8 14.5 12.6 3 25 6.4 37.9 5.7 12-.7 13.4 11 6.5 19.2-3.7 4.4-8 4.3-13.4 4.5-6.3.2-12 2-18.2 3.5-9.3 2.4-18.7 4.5-27.8 7.8a65.8 65.8 0 00-13.4 6.6c-2.6 1.7-8.4 4.9-5.3 7.3 4.4 3.5 17.7-1.3 23-1.6q18.5-1.1 36.9-3.4c6-.8 12.5-1.5 18.1-3.7 3.8-1.4 7.9-5 12.1-4 9 1.8 4.5 15.2.5 19.5-6 6.4-15.1 9.3-22.9 13-5.4 2.5-10.8 5.2-16 8-2.5 1.4-14.1 6.5-13.8 10.4.4 4 9.6 2 11.8 1.6 15.1-2.5 28.7-8.3 42.7-14.3 6-2.6 12.3-5 18.2-8 4.2-2 8.3-5 13-6 10.8-2.2 10.3 10 14.6 16.5 12.7 19.5 37.3 27.8 56.4 39a200.8 200.8 0 0120.8 14.4c4.7 3.6 6.6 8.7 11.9 3.9 4.4-4 6.5-10 9.4-15.1 3.2-6 7.6-11.2 11-17.1 5-8.8 6.5-17.1-4.5-20.3a93.8 93.8 0 01-30.3-15.6c-24-17.7-43.9-40.2-67.8-58-22.2-16.4-45.6-31.8-73.4-36.2-26.3-4.2-55.2-3.2-79.8 7.9zm718.4 126.6c-.6 4.8-1.8 15.2-8.5 15.6-8.2.4-2.7-24.4 2-27.2 7.3-4.5 7 7.5 6.5 11.6zm-76.2-2c-10.2.8-13.1 12-3 16zm37.9-9.8c-1.3 5-.9 13.2-5 17-5.7 5.6-8.2-2.5-8.1-7 0-4.6 2.2-16 8.3-16.6 5.2-.5 1 5.5 4.8 6.6zm110.3-113c-3.8 7.7.2 15.4 2.5 23-4.6 1.5-10.8.4-13.6 5.2-1.7 3-1.4 7.7-1 11 .5 2.7 2.7 6.4.9 8.9-2.4 3.3-8.4 1.8-11.1 5.4-4 5.6-1.8 18.3 3.9 22.5 8 6 3.2-8.5 2.7-11.2-1.2-6.6 5.7-5.7 10.3-8.3 2.5-1.5 3-1.7 3.6-4.8a18.6 18.6 0 00-.5-8c-2.2-10.4 1.7-8.7 10-11 7-2 6.4-7.5 4.6-13.5-1.4-4.6-5.6-12.2-1-16.2 1.7-1.5 4.5-.6 4.9-3.8.2-2.2-2.7-5.9-4.3-7.1-5.4-4.4-9.7 3.3-12 7.8z"/></svg>