<svg xmlns="http://www.w3.org/2000/svg" viewBox="0 0 778 254" width="778" height="254"><defs><style>.a{fill:#b28b67}.b{fill:#191847}.c{fill:#1f28cf}.d{fill:#2b44ff}.e{fill:#db2721}.g{fill:#ff4133}.h{fill:#2f3676}.j{fill:#dde3e9}.l{fill-opacity:.1}.p{fill:#ff9b21}.r{fill:#997659}</style></defs><path class="a" d="M677.9 47c5.8 10.8 5.1 38.2-2.4 40.1-3 .8-9.3-1-15.8-5l4 28.8h-24l8.3-38.5a27 27 0 01-7.2-19.5c1.5-21.4 31.3-16.7 37.1-5.9z"/><path class="b" d="M630.3 45.8a7.5 7.5 0 01-1.5-3 29.4 29.4 0 01-1-3.2c-.5-2.3-.5-4.9 1-6.6a7.5 7.5 0 015-2.2 9.2 9.2 0 013.6.5c1.2.3 2.1 1 3.2 1.5a14.3 14.3 0 011.7-7 7 7 0 015.2-3.4 10.3 10.3 0 016.4 1.3l1.4.8a4 4 0 001.3.7c.5.2.8-.1 1.1-.5a8.4 8.4 0 011.3-1.2 7.6 7.6 0 017.2-1.2 6.6 6.6 0 012.9 2.1c.6.9 1.1 2.3 2 2.9.4.2.7-.1 1-.4l1.6-1.1a7.2 7.2 0 012.5-1.2c1.3-.3 3-.2 3.4 1.5a7 7 0 010 2l-.2 2.6a19 19 0 01-.2 2 2.9 2.9 0 00-.2 1.3c.2.4 1 .2 1.4.2a5.6 5.6 0 012.2.4 2.3 2.3 0 011.3 1.2 2.1 2.1 0 010 1.2 3.3 3.3 0 000 1.1c1-.5 4.4-1.5 4.8.2a2.7 2.7 0 01-.4 1.7 15 15 0 01-1.6 2.4 21.4 21.4 0 01-4.2 4 2.7 2.7 0 01.8 4.7 3.4 3.4 0 01-2.5.7 5.5 5.5 0 00-1 0 2.5 2.5 0 01-.5 0 14 14 0 01-3.9-.4 12.6 12.6 0 01-5.8-3 1.8 1.8 0 00-1.4-.7l-1.5.2a10.8 10.8 0 01-3.7-1 14.2 14.2 0 01-1.3 5 42.9 42.9 0 01-3.4 5.7 12.9 12.9 0 00-2.5 4.3c-1.7-2.2-4.8-3.7-7.5-3-3 .7-5.1 4.8-3.2 7.7 1.1 1.7 3.1 2.3 4.8 3-1.3 1.4-1.6 3.4-2.4 5.1a3.6 3.6 0 01-1.8 2 2.1 2.1 0 00-1 .4c-.3.4-.3.7-.7 1a4.4 4.4 0 01-5.5-.4 3.6 3.6 0 010-4.7c-1.6-.7-4.7-1.6-4-4.3-3.7-.2-12.6-6.2-7.7-10.5-2.7-1.6-5.2-5.3-3.5-8.6 1.4-2.6 4.5-3.7 7-3.8"/><path class="c" d="M699 254l-12.6-60.1h-54.6l22.7 60.1H699z"/><path class="d" d="M666.5 254c6.6-20.6 13.3-42.8 18.3-60.1h-65c-.2 19.1-.2 41.1-.3 60.1z"/><path class="a" d="M717.2 91.2l38-11.4a85.9 85.9 0 0120-12c1.7-.4 4.8-.2 1 4s-7.6 9-6.5 10.8 5 .5 6.2 3.3q1 2.8-19.5 4l-29.5 17.4zM714 158l31.9 23.5a85.9 85.9 0 0121.6 8.7c1.4 1.2 3 3.7-2.6 3.3s-11.7-.6-12.5 1.3c-.3.9.1 1.8.6 2.8.7 1.2 1.4 2.6.5 4a.8.8 0 01-.3.3q-2.1 1.4-14.7-13.3l-31.6-13.1z"/><path class="e" d="M664.3 95c17.4 32.3 42.5 57.2 79 83l-13.9 15.5c-40.6-15-62-24.2-72.6-54.8-2.7-7.7-4.5-32.2-6.1-45z"/><path d="M615.8 202.9h77S666.6 123 666 93.3c0-1-1.9-2.8-2.7-2.5-9 2.5-19.4-2-19.4-2-18.2 29.4-24.5 65.6-28.1 114z" fill="#f2f2f2"/><path class="g" d="M663.2 133.7c12 51.5 11.5 93.8-15 93.8h-41c-6.6-43.9 10.5-104.6 26.4-135.3a5.4 5.4 0 015-3.3h11.9l11.8.3c22 .7 52.8 1.8 87.4-9.3l4 20.3c-31.2 20.1-62.8 35.7-90.5 33.5z"/><path class="a" d="M481.8 113.3l-2.4-48 7-1.9 18.6 43.7-23.2 6.2z"/><path class="a" d="M510.2 81.2c-6.8 3.8-38.3-3-42.4-24.1s26-24.3 34.3-15.3 14.8 35.5 8 39.4z"/><path class="b" d="M489.9 32.9a31.3 31.3 0 00-10 1.5 17.3 17.3 0 00-1-8.8c-1.2-2.6-3-4.7-4.8-6.9a10.8 10.8 0 00-3-2.6 7.2 7.2 0 00-3.7-.8 9 9 0 00-3.7 1l-1.5.9c-.5.3-.8 0-1.3-.2a7.1 7.1 0 00-4-.5 9.6 9.6 0 00-4 1.6 8.3 8.3 0 00-2.8 3.1 6 6 0 00-.6 1.9c0 .2 0 .4-.2.5l-.7.4a9.1 9.1 0 00-3.8 6 15.1 15.1 0 00.8 6.1 27 27 0 007.5 10.3 14.7 14.7 0 008.4 2.1 21.7 21.7 0 00-1.9 8.2 36.2 36.2 0 00.6 9.1 29.3 29.3 0 002.7 8.5 9.6 9.6 0 005.8 4.9 20.5 20.5 0 003.6.6 21.7 21.7 0 003.5.2c2.3-.1 4.7-.9 6-3a12.1 12.1 0 001-2.6c.1-.3.1-.5-.1-.7a5.2 5.2 0 00-1.1-.6 8.6 8.6 0 01-4.4-4.7c-1-2.2-1-5.3.9-6.8 2.3-2 5.7-1.4 8.5-.7 0-4 1.3-7.8 4.1-10.3 3.2-2.8 7.3-4.2 10.6-6.7a7.2 7.2 0 002.3-2.5 3.6 3.6 0 00.4-1.4c0-.7-.5-1.1-1-1.5-2.2-2-9.7-5.5-13.1-5.6z"/><path class="h" d="M521.3 254q7.4-24.1 17.6-60h-63.7c-.3 24-.9 44-1.5 60z"/><path class="b" d="M546.4 254l-7.6-60H485l17.1 60h44.4z"/><path class="a" d="M566.5 167.9l34.2 20a85.9 85.9 0 0122.4 6.3c1.5 1.1 3.4 3.5-2.3 3.6s-11.7.6-12.2 2.6 3 4 1.7 6.7q-1.3 2.8-16.2-11.4l-32.8-9.8z"/><path d="M490.3 96.7l10.2-5.5c21.1 34 49.2 65.7 91 89.2l-6.3 17.1c-35.4-13.2-68.4-22.6-85.7-48.8-5.8-8.8-7.5-40.5-9.2-52z" fill="#c5cfd6"/><path class="a" d="M428.6 254a9.6 9.6 0 01.5-4.1q1.4-3.9 18.7-69.8l-17.9.6q-11 61.1-13.8 67.2c-.6 1.2-2.6 3.5-5.4 6.1z"/><path class="j" d="M479.8 92.6q-59.2 54.1-64.3 149.4l19.6 1.5q12.6-81.6 51-97.2z"/><path d="M471.4 206.3q47.3-3.2 73-12.8c2.2-.8 1.9-4.6.4-7-22.7-36-39.6-68.2-44.4-95.2q-4 3-15.2 3.3c-14.7 31.4-18 65-13.8 111.7z" fill="#323337"/><path class="j" d="M532.7 254c-21.5-62.6-41.7-154-44.6-162.3l-9.7 1.7C469.7 130 454.5 194 450.6 254z"/><path class="a" d="M200 42c8.5 8.9 15.1 35.5 8.4 39.3-2.6 1.6-9.3 1.5-16.5-.6l11.6 26.6-23.2 6.5-2.3-39.4a27 27 0 01-12.1-16.8c-4.3-21 25.6-24.4 34.1-15.6z"/><path class="b" d="M193 31.7c5-.8 9.2-1.4 10.7-3 3.4 7.5 1.1 15-13.5 17.7-2.6 2.6-4 6.5-5.4 11.6a6 6 0 00-3.5 11.2 91 91 0 01-3 7.2c-7.4-2.1-15.9-11.8-12.8-24.3-.5-16 16-18.7 27.5-20.4z"/><path class="a" d="M343 111l10-47h7.4l6.6 47h-24z"/><path class="a" d="M378.8 87.3c-7.5 1.9-36.2-12.9-34.7-34.3s31.3-16.7 37-5.9 5.1 38.2-2.3 40.2z"/><path class="b" d="M367.5 34.7c-3.2-.5-11.7-.9-13.3-.9-1 0-2 .2-2.7-.7-.5-.7-.3-2-.4-2.9l-.7-3a30.7 30.7 0 00-3.2-8.1 25 25 0 00-11.8-10.7 38 38 0 00-18-2.5c-6.4.5-12.2 2.7-18.3 4.7a38.4 38.4 0 01-17.9 1.7c-6-1-10.7-4.3-15.8-7.4A29.5 29.5 0 00247.8.1c-5.8.4-11.1 2.8-16 6a26 26 0 00-10.3 11.7c-2.2 5.5-2.2 11.5 1.5 16.3 5.4 7 15.4 8.8 23.7 8.7a45.2 45.2 0 0014-2.6c6-2.1 11.3-5.8 17-8.7a44 44 0 018.2-3.3c2.8-.8 5.5-1.1 8 .5a38 38 0 008.2 4.7 26.2 26.2 0 009.2 1.6c6 0 12-1.9 18-3.2 4.8-1 10-2 14.8-1 2 .4 5 1.2 5.8 3.4-12.5 2.2-17.3 17.6-13.8 29 1.9 6 13.3 13.2 17.7 10 2.8-2 1-4.7 0-6.5-2.1-3.4-2.9-7.7 1-10 3.4-2 7 2.7 7 2.7 1 0 9-4.6 14.5-11.2 5.4.3 6.2-3.2 5-6.2s-9.5-6.6-13.8-7.3z"/><path class="g" d="M369 254q6.6-25.5 13.8-60h-62.3l-9.8 60z"/><path class="e" d="M416.2 254q-13.6-30.6-28.2-60h-65.4q13.8 31.4 28.4 60z"/><path class="a" d="M421 178.1l28.4 27.7a85.9 85.9 0 0120.2 11.6c1.2 1.4 2.5 4.2-3 3s-11.6-2.3-12.6-.5 2 4.6.1 7q-2 2.3-13-15.1l-29.5-17.4z"/><path class="b" d="M354.7 94.3l8.6-1.5q22.4 55.8 78 101.4l-28 34c-37.1-43.2-60-87.8-58.6-133.9z"/><path class="a" d="M294.9 254a10.7 10.7 0 01.4-5.6q1.6-3.8 21-66.3h-21q-10 57.9-12.9 63.8c-.8 1.5-4 4.7-8 8.1z"/><path class="j" d="M317 203h77q-26.8-65-26.8-110.5l-22-3.5c-18.3 29.4-24.6 65.5-28.2 114z"/><path class="h" d="M300.4 223.6h69q-9.6-88.9-10.4-118.2l-5.7-15-9.8-1.4c-16.3 29.4-40 86.1-43.1 134.6z"/><path class="l" d="M321.5 146q.3 59.1 11.5 78h-23z"/><path class="h" d="M343.5 89q-53 52-61.5 147h37.5q-5.8-80 30.5-141.2z"/><path fill="#fff" fill-opacity=".2" d="M330.1 193l24.9-11.6V193h-24.9z"/><path d="M226.2 254q3.4-25 6.6-60h-62.3q-2.2 38.5-3.7 60z" fill="#89c5cc"/><path fill="#69a1ac" d="M251 254l-13-60h-55.4l10.9 60H251z"/><path class="p" d="M179.3 114.3q-21.5 20-32 7c-10.4-13-9-21.3-1-25.4s16.6-.1 30.1-2.5q13.6-2.4 2.9 21z"/><path class="a" d="M265.6 171.3l35.5 17.6a85.9 85.9 0 0122.8 4.8c1.6 1 3.7 3.2-2 3.7s-11.6 1.4-12 3.5 3.3 3.7 2.2 6.6q-1.1 2.8-17-10.4l-33.4-7.4z"/><path d="M188.4 96.7l8.2-3c36.5 21.8 58.7 72 102.3 92.9l-7.3 13.2c-68.6 3.5-96.6-57.5-103.2-103z" fill="#e87613"/><path class="j" d="M170.1 210.3l75.4-13.3c3.4-.6 1.9-5.5 1-7.9-10.9-28-38.8-55.2-46-96.4l-22.4.4c-12.9 32.1-12.8 68.8-8 117.2z"/><path class="p" d="M157 234l67.9-12q7.2-35.5-39.5-129.6l-9.4 1c-11 32-24.2 92-19 140.5z"/><path class="l" d="M162.7 153.7q10.5 58.2 24.9 74.8l-22.7 4z"/><path class="p" d="M176.4 93.4a188.5 188.5 0 00-25.2 43.5h-.2a2.5 2.5 0 00-1.5 4.4q-19.3 50.9-7.3 112.7h17.2q14.4-40.8 24.4-156z"/><path class="b" d="M53.6 43.5c6.2 9.6 20 39.7 16.5 45.6l-28 7.5C33.3 70 51 76.4 44.3 51c3.3-5.6 3-17.1 9.3-7.4z"/><rect class="b" x="14.6" y="32.8" width="45" height="64" rx="21.5" ry="21.5" transform="rotate(-15 37 64.8)"/><path class="a" d="M29.9 113.3l-2.5-48 7-1.9L53 107.1 30 113.3z"/><path class="a" d="M58.3 81.2C51.5 85 20 78.2 15.9 57s25.9-24.3 34.3-15.3 14.8 35.5 8 39.4z"/><path class="b" d="M33.2 68.8c4.2 11.2 7.2 24.4 4.9 28.4l-28 7.5C1.3 78 19 84.5 12.3 58.9l2-3.3-.2-.8Q17.4 38 28.6 35c11.1-3 16 1.3 20.3 4.9-.2 8.3-8.6 11.8-15.1 18.7a5.5 5.5 0 10-.8 10.3h.2z"/><path class="d" d="M107.8 254c-6.5-24-16.7-37-21.8-60q-30.2-9.7-64 0c-9.7 11.8-18.7 37-22 60z"/><path class="r" d="M75.4 128.2l30.8-24.8a85.9 85.9 0 0114-18.7c1.6-1 4.5-2 2.6 3.4s-3.6 11.2-2 12.4 4.8-1.4 7 .8q2 2.2-16.6 11l-20.8 27.2z"/><path d="M58 127a85.3 85.3 0 0042.6-21.5l9.3 13.8c-9.7 13.7-24.5 26.2-39 28.3-11.5 1.7-19.7-11-13-20.7z" fill="#2026a2"/><path class="c" d="M15.4 238.1c17.2-6.6 73.2 1.9 78.9-19C105.5 178 63 131.3 52 89l-27.3 4.8c-3 .5-16.5 43.2-12 68.5 4 23.2-15 41.7 2.6 76z"/><path class="r" d="M131.7 134.5l13.5-10.9q1-12.6 5.5-13.4c2-1.5-.1 9.4 4 7.7s13.2-11.2 15.2-10c3.1 2 2 9.5-.2 13.5-4 7.6-8 10.6-18 15.5q-8 3.8-16.5 12.5z"/><path class="c" d="M49.4 89.4q6.9 55.2 26.6 58.3t64.3-22.2q15.2 21 16 31c-96 73.9-151.9 10.7-130.7-63z"/></svg>