<svg xmlns="http://www.w3.org/2000/svg" viewBox="0 0 1200 800" width="1200" height="800"><path fill="#90b1d3" d="M408.8 510.2l14.5-9 59.9-23.4 57-29.3 66.8-41 44.5-18 42.4-15.9 28 5.9 25.5 25.8 43.9 80.7 81 107.3 21.7 40-50.5 41.3-25-25.6-30.7-23.9-44.8-37.7-33.3-31-15.8-32-11.7-46.6-13.2-10.7-17.5 29.2L499 664.6l-29-22.3-30.8-35.3-18.7-50.6-11.7-46.2z"/><path d="M241.9 234.6c-1.2-.6-10.4 3.2-12 3.7-6 2.3-11.9 6.1-17.7 9.2l13.3 16.2c4.4-10.7 10-19.5 16.4-29zm3 66.5c-1.5.1 11.2 30.8 12.7 34.3 5.4 12.5 11.1 24.9 16.6 37.4 5.4 12 12.1 23.2 19 34.5 5.7 9.7 11.7 24.7 20.5 31.9-5.5-24.6-4.8-52.9-20.7-73.5-16.5-21.4-32.8-42.3-48.1-64.6zm640.3 328c-24.6-39-55.5-73.6-81.1-111.9a750.5 750.5 0 01-40.5-66c-8.8-16.6-14.3-40.3-27.9-53-6-5.6-12.4-11-20.4-13.6-11-3.4-26.2 0-37.2 2.7a404 404 0 00-60.3 21.2c-19.8 8.3-36.6 23.3-54.5 35.4-19.2 13-40 22.3-61.5 30.6-18.7 7.2-35.3 17.5-54 24.7-3.7 1.5-11.2 1.2-14.3 3.1-3.4 2-2 8-6.1 10.2-1.9 1-2.5-2.6-3.9-2.5-1.7 0-3.3 2-5 3.3-6.7 5.3-2.6 8.7.1 16 8.7 23.3 13.4 47.1 25.7 69.2a141.7 141.7 0 0041.5 46.5c2.6 1.8 11 8.9 14 8.4 2.7-.4 8.3-7.7 10.2-9.6 8.5-9 16.4-18.6 24.9-27.5 13.2-13.9 26-28.1 38.7-42.1 15-16.3 28-34.8 41.5-52.2 6.2-8 14-14.5 21-22 9.2-10 17.6-20.7 26.4-31 2.6-3.2 7-11.3 11.1-11.2 3 .1 8 6.9 9.5 9 5.6 8 5.6 22.2 8.4 32 6.8 24 19 47.6 35.8 66.1 16.7 18.4 38.1 31.6 57.9 46.4 21.4 16 41.7 32.5 58.6 53.2 6.8-6.2 14.1-11.7 20.9-18 6.4-6 14.8-11 20.5-17.5zm-317 110.2c4.8.1 12.9 3 17.2 1.3a196.5 196.5 0 00-40.5-36.5c-16.6-10.6-33.3-21.2-49.5-32.6-32.6-23-56.6-50.3-70.3-88.5-3.5-9.9-5.8-20.2-8.4-30.4-1.4-5.4-4.2-31-8.8-33.1-2.8-1.4-23.7 13.3-27 15.1a234.7 234.7 0 01-23.5 11 371 371 0 01-53 17.2c-22 5.5-36.8-3.6-50.3-20.7-15.4-19.5-28.1-41.5-42.2-62a191 191 0 01-16.3-28.8c-3.1-6.7-15.4-24.8-11.1-32 12 9.2 16.4 27.5 24.6 39.8 10.2 15.3 21.8 29.8 32 45 8.7 13 17.5 28.5 30.3 37.8 11.3 8.1 22 5.6 34 2 14.7-4.5 30-6.6 44.3-12.1 15.6-6 30.3-14.4 45.5-21.3 7-3.2 15.5-5 22.2-9 5.8-3.5 4.9-5.3 5.3-12.7l1.5-25.7c.2-5.7-2.9-13.5-.8-17.8-17.2 3-34 7-51.2 10.5-9.3 2-18.4 4.4-27.8 5.9-3.7.6-8.6.5-11.8 2.1q-3.9-1.1-4 1.4a17.3 17.3 0 01-.5 2.7c-5.3 2.4-8.4-2.7-13-7.7-5.6-6-9.9-13-14-20.1-9.3-16-20-31.1-28.6-47.6-8.7-16.8-15.8-34.8-23.3-52.3-6.8-16-11.1-33.3-18.7-49a87.1 87.1 0 00-12.5-18.5c-4.1-4.9-10.4-15.4-16.6-17.6-1.6-.6-5.8.4-7.7.3-3.6-.3-6.9-1.7-10.6-1.4-8.2.7-17 5.8-23.5 10.3 4.2 3.8 14.7 8.3 7.1 15-7.3 6.6-11.3-5.1-14.1-10.3-13.1 10.8-11.2 25.7-12.8 41-.7 7.9-2.8 15.7-4.2 23.6-1 5.6-.3 11.4-.5 17.2-.8 14.6-2.2 28.7-2.2 43 .1 15.5 1.2 30.4 2.4 45.7 2 25.8 6.9 51.6 11 77.2 2.2 14.4 5.4 28.3 8.4 42.5 3.5 16 9.9 31.3 13.5 47.3 3.7-4.7 6.4-4.7 12.3-4 4.6.4 7.6-.7 7.4 5.6-.2 4.1-3.8 7.3-7.8 8-5.2 1-7-1.7-9.7-5.6-.6 7.4 4.4 15.3 6.4 22.6 1.9 6.9 3.1 13.7 6.3 20.3 3 6.5 5.7 12.9 8.9 19.3l4.2 8.9a23.5 23.5 0 002.7 4.8c2.6 3 2.2 1.5 5.2 3.2 6.6 3.6 4 2.7 4.2 10.2.2 7.5 4 13 10.1 17.1 13 8.9 25.8 11.4 40.6 15.8a146 146 0 0042.7 7.7c17.8 0 35.4-2.4 53.3-2.7 19.6-.2 39.5-.1 59.1.6 8 .2 15.6.6 23.4 2.7 9 2.4 17.8 1.4 27.2 1 19.9-.7 40.5-2.3 60.2-2.4 14.2-.1 29-1 43.3-.2zm516.8 7.8c3.5 1.8 11.5 1 15 .6 6.3-1 7-3.4 11-9 6.8-9.7 12.4-19 16.4-30 7.7-21.4 10.9-43.3 14.2-65.6 3.8-24.9-3-50.6-5.5-75.2-.6-5.7-1.4-11.3-2.3-17-.5-3.3-.6-14.7-2.8-17.6-4.3-5.6-24-1-31.8-.6-21.6 1.4-43.4 1.8-65 2-11.6.1-23.2.6-34.7.7a148.5 148.5 0 01-15.6-.7c-1.8-.2-3.5-.6-5.3-.7-6-.3-5.6-1.2-7.2 4.2-2.7 9.4-.6 21.4-1.3 31.2-1 13-1.5 26.3-1.3 39.4.3 12.1-.2 24.2.3 36.3a57.3 57.3 0 002 14c1.6 5.4 3.2 18 7 21.8.4.4 3.5-.6 4.4.5 1.3 1.6 1 5.1 2 6.2 2.8 3.4 8.8 3.7 13 5.2a280 280 0 0134 14.6c10 5 26.1 9.4 32.1 19.4 2.8 4.6 3.1 10.7 5.7 15.5 2.9 5.4-3 2.6 4.2 4.8 3.1 1 8.2 0 11.5 0zM31.8 685.8c-.9 12.5-8 24.4-10.4 36.7-1.1 5.8-3 11.4-4.4 17.2-1.3 5.5-6 12-5.5 17.4 17.2-6.1 34.7-7.7 52.7-9.3 17.1-1.6 35.2-2.2 52.1-2.3 17.3 0 35.8-1.7 53.5-2 18.6-.2 37.5-.7 55.8-2.6-9.5-7-21.5-13.8-28.6-23.6-7.7-10.8-11.7-24.2-18.5-35.5-13.5-22.8-22.2-51-29.3-76.5-14.4-51.6-30.4-102.2-34.3-155.7-7.4 3.8-13.2 18.5-17 25.7-4.6 9.4-7 19.4-10.1 29.3-6.3 20.4-10.7 41.5-18.4 61.7C54.6 605 45 646.5 31.8 685.8zm936.6-300.5c3.2 23 9.8 46.4 10.1 69.8 0 5.1-.8 10.8.3 15.9 1.1 5.4 4.8 10.2 7 15.3 3.4 8.1 12 24.9 3.7 31.8-.2-6.6-6.2-15-9.2-20.6-4.6-8.7-10.6-16.6-15.5-25a347 347 0 00-35.2-50.4c-13-15.2-28-28.6-41.7-43-4.1-4.4-37.3-46-38.6-45.5A316.5 316.5 0 00901 441c11.7 16.3 25.8 27 40 40.8 12 11.5 34.4 23.8 30.3 42.6 18.6-1.8 37-4.7 55.8-4.7-3-23.7-5.5-47-11-70.4-6.2-26.5-10.4-53.8-15.7-80.6-5.4-27.3-14.6-53.8-20.3-81-5.5-26.1-10.1-52.2-14.1-78.6-3.3 14.7-2.1 30.7-3.3 45.6-1.2 15.3-1 30.3-.7 45.6.8 28.5 3.8 56.6 6.4 85zm80.5-135.8c.1-12.2 2.5-24.2 3.2-36.4.2-3.7 4-29.1.5-30.5-2.9 6.2-3.5 14.2-6.1 20.7s-6 12.7-8.5 19.3a145.8 145.8 0 00-7.8 45.4c-1.3 34.2-2 68.3.3 102.4 1 14.7 1.7 29.4 1.4 44-.3 16.2-2.7 30.2.3 46.2a386.9 386.9 0 015.8 47.8c.7 11.3 1 10.5 11.8 9.7 7.7-.6 15.6 0 23.4-.4-3.7-44-4.3-88-10-132-3-22.3-3.1-45-6.8-67.3-1.8-11-5-22-6.7-33-1.9-11.9-1-23.9-.8-35.9zm-788-27.7c20.7 1.8 42.8 8 64 4-3.4-1.5-12.6-3.5-8.5-9 4.2-5.8 11.3 1.5 15.5.7 2.6-.4 8.3-11.2 9.9-13.5 3.6-5 4-6 10.5-7.2 6.3-1.3 7.7 0 8.5-6.2 1-7.2-1.6-15.2-1.3-22.6.5-15.8 5.6-29.7 10.4-44.6-20.2 4.4-40 9.6-60.6 12.4-8.9 1.2-22.6 4-30.6-2-2-1.5-1.8-3.6-3.5-5.5a27.3 27.3 0 00-12.2-7c-25-5.3-27.4 30.3-14.9 43.6 3.1 3.4 7.5 5 10.7 8 4.3 4.2 4.7 8.5 5.3 14.7a64.8 64.8 0 01-5.4 34zM564 390c7.4 1.4 15.1 1.1 22.5 2.3 2.6.4 10.5 2 12.8.4 3.5-2.4 4.8-11 6.5-15 2.9-7 7-13.2 9.8-20.3 11.5-29.3 22.1-58.7 36-87-5.4-1.4-9.4-1.5-14.8-2.2-5.5-.7-10.6-4-15.9-5.4-5-1.4-10.3-1-15.3-2.6-2.7-.8-5.1-2.8-7.8-3.4-4.3-1-9.4-1.7-12 1.1-2.6 3-3.5 11-5 14.7-3.8 10-8.2 19.7-11.4 30a788 788 0 00-8.2 27.7c-2.7 9.8-8 18-11.2 27.3a80.7 80.7 0 00-5.1 22.2c-.4 7.4-1.5 7.9 6 9 3.7.7 9.6 3 13.1 1.2zm485.2 348.8a5.2 5.2 0 005.4-.3c-16.6-7-32.8-16.8-50.2-21.7a716 716 0 01-47.8-15.5c-12.8-4.5-24.2-8-35.8-16a67.4 67.4 0 01-18-17.3c-5.4-7.9-6.5-19.1-12.3-26.2-7.9 8.6-17 15.1-26.3 22-3.2 2.3-11 7.5-12 11.1-1.4 4.6 2.3 9 4.1 13.7 4.7 12 7 24 9.6 36.4 1 5 3.2 12.5 7.3 14.5 3.7 2 14.5.6 19.2.2 24.2-1.8 48-3.7 72.3-2 27.5 1.9 57 3.2 84.5 1.1zm48.4-221.6c4.4 0 8.7-.6 13-.6-2.5-11.8 3.4-27 5.5-38.9 2.4-13.1 4.1-26.8 5.7-40a722 722 0 004.8-84c0-27.3 5-52.2 12-78.4 7.5-28.2 19.7-53.6 29.8-80.7-11 5.8-17.2 19.6-23 30a149.2 149.2 0 00-15.3 43c-5.8 28.7-12.2 57.5-19 86.2-6.9 29.9-11 60-19 89.7-3.9 14.4-9.2 32.2-9.5 47-.1 6.3-2 19.2.8 24.5 2.6 5 8.4 2.7 14.2 2.2zm-664-37.1a87 87 0 01-1 9c6 0 13.8-6.4 19-9.2 6.4-3.5 12.7-7.3 19-10.8 12-6.7 25.6-11 38.5-16.6 14.7-6.3 28.3-14 42.4-21.6 4.9-2.7 40.3-18 39.7-22.2l-23.3-.8c-6.7-.2-17 1.3-23.4-.8a17 17 0 01-8.7-8.5c-1.3-3.2 1.6-18 0-19-8.8 9-14.3 20.7-22 30.3a83.6 83.6 0 01-32 22.4c-13.5 6.2-27.5 11-41.3 16.3-5.8 2.3-5.7 3.6-6.2 10-.6 7.1-.5 14.3-.7 21.5zm702.2 268.5c14.7 1.6 29.7.7 44.4 2 5.4.4 12.9 1 7.4 8.2-3.4 4.6-14.3 3.1-19.2 3.4-13.3.9-27.3.4-40.6.2-2.8 0-6-.8-8.8-.6-3.2.2-7.2 2.5-10.1 2.5-1.9 0-2.5-2-4.1-2.1a92.5 92.5 0 00-10.4-.7c-52.6 0-104.5-1-157-1-25-.1-50.5-.6-75.6-1.7-5.3-.3-35.2.8-34.4-8.7.4-4.9 10.2-5.6 13.8-6 2.6-.5 5.4-.4 8-.5 7-.4 10.2 1.3 8.7-6.4-5.7-29.3-15.8-53.4-37.4-74.5a516.7 516.7 0 00-58.8-47.1c-24.3-17.4-44-35.8-58.4-62.4a209.8 209.8 0 01-19.8-48.8c-1.6-6.2-1.6-13.2-3.5-19.2-1.5-4.6-4.8-7.8-6.8-12.6-24.1 40.4-56.1 74.1-85.5 110.5a433.2 433.2 0 01-46.7 49c-5 4.5-9.7 9.1-14.3 14-3.9 4-10 7.6-13.3 12-3.2 4.4-2.4 4.2 2.4 7.6 6.3 4.5 13.3 8.3 19.7 12.7 10.3 7 21.5 13 30.7 21.4 10 9.2 18.6 19.8 27.3 30 5.8 7 13.3 15.8 14.8 24.5.5 2.9 2.3 10-.1 12.1-2 1.8-1.9 1.1-4.4 0-3.4-1.4-4.4-4.7-8.5-6.3-10.5-4-23.2-2.6-34-2.7s-22 1.2-33 1.1c-24.9 0-49.3 2-74.2 3-26.5 1.2-53.3-1.6-79.7-1.2-19.5.3-39.6-1.2-59.7 0-10.3.5-20.5-.8-30.5-1-13.2-.1-26.8 1.7-40 2-22 .3-43.5.3-65.5.9-47.2 1-94.2 2.3-141.5 3-6.3.1-13.3-.1-19.5.6-6.6.8-3.2 2.2-7.7 4.5-12.7 6.7-9.8-18-9.5-22.9 1.6-26 8.2-51.6 16.2-76.3 7.5-23.4 13.7-48 20-72 7-26.2 16.1-51.3 24.4-77.3 8.5-26.6 15.4-54.3 30.8-77.8 3.5-5.4 7-11.2 12.7-14.6 6.3-3.8 6.6-1.6 6.6-8.5 0-6.6.4-15.3-1.1-21.5-1.4-5.7-1.2-2.3-4.4-6.4-2.5-3.3-5.2-5.5-7-9.5-11.3 11.4-37 5.4-48-2.9a78.5 78.5 0 01-27.2-43.2c-3-13 .7-37.8 15-44 7-3.1 32.9-5.4 33.9-15.3.5-5.2-8.6-12.4-10.6-16.8a99 99 0 01-8.7-28 60.5 60.5 0 0118.4-48.8c23.2-21.6 64-32.7 93.8-19-6.3-24-10-44.8-7-69.9 2.8-21.5 15.5-33.6 33-44.3A162 162 0 01296 30.9c7.8 1.2 15.3 3.8 22.4 5.9 10.5 3 23 2 32.8 6.9 7.2 3.5 12.6 10.6 18.9 15.3a87.3 87.3 0 0118.5 21.2c11 16.3 6.7 46.4-2.5 62.6a27 27 0 01-7.6 8.9c-3.3 2.4-8.5 3.2-10.2 6.4-4.4 8.3-.2 26 .4 35 .7 10.3-4.5 18-16.2 19-6.8.4-7-3.5-10.3 4.6-2 5.2-4 11-7 15.7-6.3 10-17.7 9-28.2 8.7-12-.3-24-2.2-36.1-3.4 3.2 10.2 12 18.2 17.4 27.3a79.8 79.8 0 0113 37c1 11-1 19.7-8.6 28-3.1 3.3-5.9 3.5-5.1 7.4.5 2.4 4.6 6.3 6 8.3 4 5 8.4 9.7 11.9 15 13 20.8 17 52.5 17 76.7 0 1 .6 3.4 0 4.6-.3.8-3 3.5-3 3.7-.6 3.1 2.4 8.5 7.2 9 5 .5 14.1-3.6 18.8-5 7.4-2.2 15-3.8 22.4-6 12-3.7 24-6.6 36.1-9.4 5.5-1.3 11-2.4 16.6-3.6 6.3-1.4 9.2-4 12.4 2.4 2.8 5.5 1 6.5 7.8 3.7 6.7-2.7 13.3-6.2 19.8-9.3 11.5-5.4 25.3-10.3 35.2-18.4 16.6-13.5 22.8-35 38.7-49.2 4.4-4 7-4 9.8-9.6 3-5.9 4.6-13.5 6.1-19.8 2.8-11.1 4.8-22.3 7.3-33.4 3-13.9 9.8-26.4 14.7-39.6 2-5.1 3-11.7 6-16.3.8-1.2 2.4-2 3-3 2.2-3.4 2.2-4.4 2.8-8.6 2.6-19.5 14.3-9.2 27.1-4.8 5.4 2 31 14.2 21.2 22.4 11.6 3.3 30.2 1.5 30 18.2 0 8.5-5.1 17.6-7.9 25.6-2.4 7.1-4.7 14.3-7.2 21.3-5.4 15.6-12 30.6-17.3 46.2-2.4 7.1-4.4 14.4-7.8 21-3 6-10 12.5-11.3 19 31-13.3 59.7-32.4 94.4-31.2 15.2.5 29 7 37.4 20.3 10.5 16.7 17.4 35.5 27.7 52.4 37.4 61.4 82 117.2 123 176.2 3.2 4.5 7.2 8.8 8.3 14.4.7 3.6-.7 7.3.2 10.8 1.8 7.3 10.8 16.4 16.8 20.5 11.7 8 30.7 19.4 45.2 18.4-9.1-22-9-46-8.6-69.4.4-22.3 2.8-44.3 5.7-66.3a89.7 89.7 0 012.6-14.5c1.7-5.5 4-5-1-10-7.6-7.6-16.6-14-24.2-21.7-16.5-16.8-33.4-30-46.4-50-12.4-19-25.4-38.6-34.6-59.5-9.4-21.5-13.2-44.4-17.8-67.2-2-9.2-8.8-19.5-7.5-29.2 1.8-12.2 7.5-3.3 9.8 3.3 7 20 23.4 37.9 37 54 14.7 17.4 32.7 32 48 48.8 16.8 18.4 28.3 39.6 43.1 59.2 0-24.4-8.3-49.2-11.7-73.3-3-21.2-4-42.5-5.8-63.8-4.3-48.4-.6-98.2 5.4-146.3 2.9-22.8 1.3-45 1.4-68 0-7.3-3-24 .8-30.6 7.4-12.3 11.7 14.7 12 18.8 2.3 24-1.7 47.8.3 71.8 2.1 25 6.8 49.3 10.7 74 4.3 26.8 11.2 53 17.9 79.3 7 27.5 12.8 55.7 20.6 83 2-8.6-.9-19.1-1.4-27.9-.9-12.5-2.5-25-2.6-37.6-.2-20-.4-40.4.7-60.4 1.1-19.6.8-40.2 6.8-59.1 2.9-9 7-17.8 11.2-26.2 5-10.5 6.8-20.6 9.6-31.7 2.4-9.5 6-18.7 7.6-28.4 1-6 3.7-23.8 10.6-10.4 4 7.9 2.3 19.5 2.4 27.9.2 10.8-1.5 21.2-1.7 32-.5 21-.9 42-2.5 63a232 232 0 004 63.6c4.6 23.8 6 47.7 8.3 71.8 1.3 12.4 3.3 24.8 4.3 37.2.6 6.6-2.1 25.5 2.6 30.2.4-11.4 3.7-22.8 6.2-34 3-13.2 4.1-27 6.3-40.4 3.5-21.7 10.3-42.3 14.8-63.8 9.3-44.1 17-100.9 56-129.8 5-3.8 10.6-6.6 16-9.7 3.2-1.7 7.8-6.3 11.4-7.1 3.9-.9 5.5-.2 7 4.3 2.3 6.3-1.7 9.3-5.5 13.8-13 15.8-18.5 36.1-26.6 54.7a334 334 0 00-26.5 133.1 672 672 0 01-4.3 71.1 404.3 404.3 0 01-14.2 77.6c7.8 1.8 16.3-.8 18.4 8.3.6 2.2-.4 4.9.2 7.8.6 2.8 2 5.6 2.7 8.4a120.7 120.7 0 013.3 17.3c3.1 22.9 8.5 44.6 9 67.8.6 21.4-3.6 43-7.5 64-3.9 21.2-15 39.2-23.8 58.4h11.3zM638.7 700c-4.2 1.2-24.3 3.4-24.3 9.7 0 3.8 20 3.7 23.6 4.1l.7-13.8m44.4 43.6c11.5 2.2 27.3-1 34.7-11.2 3.4-4.7 5-12 6.2-17.7 1-5.4 4.4-19 2.2-24-2.8-6.3-29.4.2-37.2 1a264.1 264.1 0 01-41 .5c0 14-.8 27.6 7.4 39.6 6 8.7 17.1 10.7 27.7 11.8m-2.4 17.2c-12.6-4.6-25.8-1.6-34-15.1a53.7 53.7 0 01-5-11 33 33 0 01-1.5-5q1-5.7-4.2-3.2c-6.6-1.3-14 3.2-21 1.9-17-3.3-14-27.7-2.5-36.2 2.3-1.6 4.5-2.1 7.1-3 5.7-1.7 8.8.3 14-.2 4.2-.4 5.4-4.9 10-6.8 2.9-1.3 7-1.2 10.1-1.3 16.3-.7 32.7-.7 49.1-1.7 7.7-.5 16 .7 23.5-.6 3.5-.7 3-3 6.3-1 3.5 2.2 2 10 1.8 13.2-1 18-2 37.5-11.8 53.4-8.9 14.4-26.3 16-41.9 16.6m-665 5l12.1-.1-12.1.1m1125-386.2v-11.7 11.7M110 395.5v0m336.8 366h9.6-9.6m-195.8-.9h9.7-9.7m704.7-157.4l-.4 7.7.4-7.7m180 145.3h-7.5a9.2 9.2 0 017.5 0M914.7 760l5.3-.1h-5.3m225-348.7l.1-5.8-.1 5.8M972.5 166.4l-.4-6 .4 6m168 220.7l.2-6-.1 6M578.4 757.4h4.7-4.7m409.4 3.2l4.7.1h-4.7M1155.6 620l-.3-5.2.3 5.2M955.4 760.7h3.8-3.8m-281.5-1h4.1-4.1m-395.3.3l4-.3-4 .3M649 250.7l-6-.5c2 .1 4.1-1 6 .5m507 498.6l-6-.6 6 .6M1019 262.8l-.4 5.1.4-5.1m122 71.6l.4-4.9-.4 5m-122.8-45l-.4 5 .4-5m122 110.7l-.1-5a4.4 4.4 0 010 5M956 638.2v5a4.5 4.5 0 010-5m125-192.2l-.6-5 .6 5M45.9 291.6c-1.2 1.8-3 .6-4.6.8l4.7-.8m642.8 388.6H684h5m262.4-381.5l.4 4.2-.4-4.2M139.5 160h-5c1.7-1 3.3-1.2 5 0m878.7 153.6l-.3 4.4.3-4.4M973 133.8c0-1.4.2-2.7.3-4l-.3 4m-13-4.2l-.4 4.3.4-4.3M242.7 32.8l-5 .6 5-.6M121.4 161.1l-5.2.5 5.2-.5m944.8 4.3l.3-4-.3 4M64.8 387.8h3-3M960 554.2l-.3 4.5.3-4.5m101.3-290.5v-4.3 4.3M285 29.4h-4.6a3.8 3.8 0 014.6 0M694 368l-5 .1a4.2 4.2 0 015-.1m146.6 389.3h3-3m37.4 1.8l3-.1h-3m-586.1.8h3-3m862.9-156.4l-.5-4.3.5 4.3m-135.3-239.8l.4 4-.4-4m52-23.2l-.4-4.3.5 4.3M300.3 760.6h3.1-3.1m380.4.1l3-.1-3 .1m382.4-525.3l-.2-4.4.2 4.4m-.5 526.2h3.2-3.2m22.7-.2l3 .2-3-.2m9.1 0h3-3m47-415.3l-.3-4.3.2 4.3M450 742.6l9.4-.5-9.4.5M261 221.8l8.2.7-8.2-.7m768 118.3l.2 7.8-.3-7.8m56.2 407l8.5.5c-2.9.1-5.8 1-8.5-.5m-16.8-307v-7.4 7.4m-7.3 77.8h7.5-7.5m-627.1-43.6l-.2 5.7.2-5.7m668.6-79.8l-.3 5.6.3-5.6m-53.2 344.2l5.4-.3c-1.3 1-2.7 1.1-5.4.3m-12.1-245.4l.4 6-.4-6M359.4 173.9v-6 6m679.9 344.4l6.7-.2a7.8 7.8 0 01-6.7.2m62.3 14.4h-4.8 4.8M518.3 739.5h6.6a6.4 6.4 0 01-6.6 0M102.9 746l6.7-.6-6.7.6m926.7-389.3l.3 6.1-.3-6M315.3 226.5a6 6 0 015.7-.1l-5.7.1m652.6 153.6l.5 5.1-.5-5.1m159.4-40a4.6 4.6 0 010-5v5m-97.4-58.2V282.1m67.7 235c1.9-.6 3.8-1.5 5.8 0h-5.8M470 741.9l5.9-.6-5.9.6m-267.9 0c1.8-.8 3.6-1.2 5.4 0H202m366.1-2.6c2-.8 3.8-1.3 5.7.1h-5.7m-426-247.7l.4 5.2-.4-5.2m444.3-99.5c1.9-.7 3.8-1 5.6.1h-5.6m443 51.4l.4 5-.3-5M141 291.2l-.5 4.1.5-4M31.8 685.7l-.3 4 .3-4M1069 452.6l-.3-4.1.3 4M931.9 736.9h5-5M433 486l1 3q-3.2.8-1-3M559 390h5.1c-1.7.7-3.4 1.3-5 0M143 500l.2 4.5-.2-4.6m18 243.6h5-5m811-227.6l.1 4.1-.2-4.1M126.2 745.2a4.3 4.3 0 014.9 0h-4.9m42.6-473.4l.3 4.3-.3-4.3m-51 473.6h5a4 4 0 01-5 0M1049 249.5v-4.3 4.3m-772-25.2l4.9.6-4.8-.6M135 348.8v0m924.8-.2l-.3-4.1.3 4M684.6 743.9l6 .5-6-.5m-6.6-51.4h-3.2 3.2m0 50.6l5 .5-5-.5M378.6 630.9c2.2 12.2-16.9 24.2-18.4 6.8-.5-6.4 3.7-10.9 8.5-14.7 6.8-5.6 10.5-.3 9.9 7.9M168.8 481.6c4.5 1.8 38.7 13 21 18.5-4.7 1.5-11.9 1.8-16-.9-4.8-3.1-9.8-12.4-5-17.6m8.5-165.8c11.6-1.3 22.3 17.7 8 17.1-10.5-.4-24.5-17-8-17m41.5 46.7c9.7 8.5-8.3 27.4-15.4 20-3.6-3.7-.3-11.7 2.7-14.9 3.1-3.2 8.6-3.8 12.7-5m29 219.4c-5.8.9-31 9.1-25.8-5.8 2-5.7 7.6-4 12.7-3.8 8.3.4 13 0 13 9.6m-16.6 38.5c8.6 4.6-4 30.2-11 24.8-10-7.6 3.6-22.5 11-24.8m37.4-20.7c4.2-1.7 23.8 17.2 16.4 22.5-3.9 2.7-11.1-2-13.5-4.7a18.6 18.6 0 01-2.9-17.8M155.1 445.4c4.3.7 11.6 1 12 7 .2 5.2-6.4 6.9-11 7.3-5 .4-11.3-1-11.4-7 0-6.5 10.3-6.1 10.4-7.3M260.2 706c4.5 2.8 25.7 12.7 16.6 19.8-3.4 2.7-13.7-2.8-16-5.6-2.7-3.4-5.4-11.3-.6-14.2m58.9-72c-.7-11 17.8-15.3 14 .3-1.1 4.3-2.2 11-7.6 11.2-6.4.3-6.6-7.2-6.4-11.5M262 443.6c.1 8.3-15.8 15.6-16 2.5 0-11.8 16.6-15.2 16-2.5m-10.5-43.3c3.9 1.3 9.1 2 9.5 7 .3 5.2-4.6 7.6-9 7.3-3.6-.3-9-3-9.6-6.9-1-5.7 4.6-6.1 9-7.4m-72.9 152.1c0-6.8 13.7-15 16.2-7.1.9 2.5-5.6 14-7.8 14.8-5.7 2.3-6.5-3-8.4-7.7m112.6 114.1c-4.6 4.2-18.6 15.8-17.5.2.7-10 18.7-9.5 17.5-.2M518 711.3c1.5-6.6 23.3 4.8 16 13.1-2.4 2.8-8.8.3-11.3-1.4-4.8-3.2-5-6.3-4.7-11.7m-121.4-141c.8-3 1.8-8.2 4.6-10 5-3.4 9.5 1.7 9.5 7 0 10.1-11.5 13.3-14.1 3m-54 117.5c5.7 1.3 18.3 15 11 20.7-7 5.4-16.4-16.6-11-20.7m5.4-104c7.3.6 17.3 12.3 6 14.2-8.9 1.5-19.2-11.3-6-14.2m65.8 54.2c1.8-6.2 19.9.4 18.9 7.2-.6 3.6-8 4.4-11.8 3.5-5.7-1.4-7.2-5.2-7-10.7M201.1 294.9c.2-8 15.4-11.2 16.5-3.2 1 7.2-16.7 15-16.5 3.2m207.6 424.9c1-4 1.6-8.8 6.5-9.3 5.8-.6 5.6 3.8 5 8.3-2 12.3-8.9 13-11.5 1m-241-330.4c-8 1.7-22.5-13.6-13.6-16.9 6.2-2.3 13.6 12.2 13.6 16.9m101.5 119c-4 1.9-5 3-8.1-.1-2.7-2.7-2.6-10.3-.3-13.1 9-10.9 8.7 8.8 8.4 13.2m33-22c4.2.5 16.8 12.4 10.2 17.1-8 5.8-12.5-12.3-10.2-17.1m91.4 3c-3.1 12-10.8 4-10.3-5 .7-14.3 8.6-1.8 10.3 5m46.5 190c5.2 2 12.3 22 4.9 23-8.4 1.2-5.6-19-4.9-23m-64.8-11.2c6-2 8.1 10.5 4.7 12.8-7.6 5.1-6-9.9-4.7-12.8M319 634l-.3 5 .3-5M518 711.3l-.2 5 .2-5M413.8 638v0m657.3-25c12.3-.3 26-5 38.1-3.5 3.4.4 11 1.2 5.7 6.2-2.6 2.3-14.8 1.1-18.5 2a330.9 330.9 0 01-71.5 7.4c-10.8-.2-21.8-1-32.6-1.6s-12-5 .3-6.4c12.6-1.5 25.7-1 38.4-1 13.4 0 26.7-2.2 40-3m27.1-29.7c-1.2 3.4-2.2 11.1-6.8 11.6-6.3.7-7.4-10.2-7.1-14.2.2-4.8 2-12.8 8-11.2 5 1.4 5.5 10 6 13.8m-38.6-2.5c1-3.6 1.4-11.8 6.5-12 5.7-.3 7.3 8.1 7.3 12.2 0 3.9-1.5 11.2-6 12-6.2 1.3-6.7-8-7.8-12.2m-64.2 6.5c-1.8 4.3-3 10.3-8.8 7.4-4.4-2.3-5-11.6-4.2-15.8.9-4.4 2.7-9.4 7.7-7.4 5.9 2.2 5.3 11 5.3 15.8m48.6-4c-5.5 16.5-15.4 5.3-11.6-7 4-13 11.1-.4 11.6 7m-26.6.8c-1.5 3-3.1 9.2-7.2 8.5-5-.8-5.2-10.4-4.6-14 .4-3.2 1.9-8.4 6-8.3 6.1 0 5.7 10 5.8 13.8m109 3.2c-4.1 9-9.7 1.2-8-5.2 2.7-9.6 7.7-1.1 8 5.2m-99.6 28.8h-13.3c4.4-1 8.8-1.3 13.3 0m88.2-6.7h-11.5a20.1 20.1 0 0111.5 0m-44 3.6l-9.2.6 9.3-.6m-75.7-25.7v-6.6a7.3 7.3 0 010 6.6m24.2 37.6h5.3-5.3m-30-1.5h5.4-5.4m14.8-7.1l-7.5.6 7.5-.6m34-.3h-7.4a9.2 9.2 0 017.4 0m-21-32l-.2-6.8.2 6.9m-35-5.2v0m102.8 33.2l-6.6.6 6.6-.6m41.1-24.8l-.2-6 .2 6M1033 625h4.5-4.5m65.2-41.7l-.4-4.3.4 4.3m-54.1 0l-.3-4.4.3 4.4M255.3 157.3c-6-1.6-7.1-10-6.2-15.2l3.3-7.5-1.2-2.8c.5-5.2-.9-7.4 5-5.3 11 3.9 12.8 30.4-.9 30.8m89-16.3c5-.4 14 5.3 9 11-3 3.4-13 1.7-17.2 2.5-5.4 1-11 2.2-8.1-6 2.3-6.3 10.5-7.7 16.4-7.5m-5.3 38.3c-5-4-2.7-22.4 5-19 7.8 3.3-.8 16.4-5 19m-90-37.2v5.8a5.8 5.8 0 010-5.8m6.2 15.2h3-3m621.5 529.5c-.5 8.3-9.5 2.1-8.8-3.5 1.1-10.1 6.9 0 8.8 3.5"/></svg>