<svg xmlns="http://www.w3.org/2000/svg" viewBox="0 0 1200 800" width="1200" height="800"><path d="M742 642.4l102-6 116.2-21.5 37.9-26.3V446.8l-7-49.5 101.7-132.6-29.3-31.8-102 72.1L923 202.3l-44.7 9.2-4.3 27.8 9.8 109.1-13.5 10.4-48.9 33.6-87.4-44.6s-37.3-16.5-39.7-16.5-74.6 4.3-74.6 4.3L585 358.2l-12.3 14.6 15.4 19.6 59.8 30 37.3 34.8 23.9 43.3 17 90.6 4.4 51.3z" fill="#90b1d3"/><path d="M996.2 65.4c12.7 17-6 41-16.6 52.9-5.2 5.7-9.4 12.4-14.5 18.3-5 5.8-11.2 10.4-15.6 16-4.7 6-10.1 12.4-14 19.1-2.5 4.2-6.2 9-7.5 13.8-1.7 7-.2 3 2 7 2.5 4 3.3 4.3 4.1 10a36.5 36.5 0 004.6 14.2c4.5 7.7 9.3 15 12.4 23.6 4.2 11.3 7.1 23 10.4 34.6 1.3 4.6 2.2 9.8 4.3 14 3 6 3.4 5.5 7.8 1.8 13.2-11.1 26.5-23 40.3-33.5 7.9-6.1 16-12 24.4-17.4 5.7-3.6 18-10.1 20.8-17 3.8-9-2.1-17.2 6-25.5a40.8 40.8 0 0120.8-9.7c9.7-1.8 20.4.8 30.2 1.8a89.5 89.5 0 0029-2.3c14.8-3.4 43.1-22.2 52.7.4 4.2 9.8 1.3 20.7.5 30.9-.6 8.8-3 18.1-8 25.4-5.7 8.2-14 8.7-22.6 10.9-10.2 2.6-20.6 3.5-30.8 6a78.5 78.5 0 01-15.1 2.1c-4.6.3-11.2-1.8-15.2-1.1-3.9.6-2.6 3.2-5.2 5-1.1.8-3.3.3-4 .9-1.9 1.7-2.4 3-3.8 6-4.3 9.6-10.8 18.8-16.4 27.5-4.7 7.4-10 16.3-15.6 22.9-11.6 13.8-23 29.1-34.5 43.6a203.4 203.4 0 01-19.7 21.6c-2 2-6.3 3.7-7.4 6.4-1.5 4 2.7 12.5 3.6 16.4 2.3 9.4 2.7 19 5.1 28.2 2.4 8.8 3.2 18.4 3.7 27.5 1.2 20.7 3.8 40.4 3.2 61.1a184 184 0 01-6.8 52.5 70.2 70.2 0 01-34.7 39.3c-8.5 3.5-16.4 6.7-25 8.6-8.5 1.8-17.4 3.8-25.8 6.4a246.7 246.7 0 01-48.1 10 450.7 450.7 0 01-63 1.6c-9.3-.4-19-.4-28.3-.4-9.6 0-18.7 2.1-28.3 3.3-34 3.9-69.9.7-103.8 4.6-16.8 1.9-33.5 5.5-50.6 5.7-15.3.2-30.8-.9-45.7-1-4.8 0-8.9.4-13.6-.8-2.5-.6-6-3-8.5-1.6-2.2 1.2-4 6.4-5.3 8.6-3 4.9-6.6 8.8-10.4 12.8-15.3 16-30.4 21.4-50.4 27.3a50.7 50.7 0 00-21.4 10.2 78.5 78.5 0 01-19.9 11.6c-14.1 5.8-30.8 1.3-44.2-3.7-6.4-2.4-13.2-4.7-19.8-7.6-9-3.9-16.4-10.4-25.2-14.5 1 10.4-9.2 14-12.4 21-2 4.4-.7 11.5-2.9 16.6-2 4.8-5 9.2-9.8 10.5-6.5 1.7-18.2-6.3-22.8-11-2.5-2.6-4.8-9.5-8-10.6-4-1.5-11.4 5.1-15.3 6.6-18.4 7.1-37 10.5-56.7 7.7-20-3-38.4-10.7-57.2-18.2C115 709.8 83 686 54.2 657.1c-1.6-1.6-4-3-5-5.2-1-1.8-1-6.1-1.5-7.2-2-3-4.7-2.5-8.2-2.8a42.2 42.2 0 01-28-11.8c-13.2-12.6-18.1-42 2.2-49.9a28 28 0 0116.3-1.1c2.2.5 10.4 6 12.5 5.6 3.2-.5 2.6-5 3.5-7.5a68.1 68.1 0 018.8-16.7 157.2 157.2 0 0121-24.4c8.2-7.6 17.3-11 27.1-15.2 6.6-2.9 19.5-7.8 26.5-5.2 9.1 3.3 4.6 14.3-1.1 18.1-8.2 5.5-18 7.7-26.3 13.3-9.2 6-17.6 14.5-26 21.8-6.7 6-12.6 13.2-19.4 19a48.6 48.6 0 00-5.4 4.9c-.2.3 0 2.6-.8 3.7-4 4.6-3.1 4-9.1 2.4-7-1.9-24-6.2-28.8 3.5-4.3 8.7 13.3 16.5 19 19.2 8.6 3.9 10.6 7.8 16.6 15.2 6.2 7.6 16.5 12.8 24.3 18.5 16.8 12.2 35.7 21 53.7 30.7 17.5 9.4 36.3 16.3 54.6 22.9 11 4 24.2 8.3 35.8 9.5 11.6 1.3 22.5-.8 34-3.3a74.9 74.9 0 0012.8-3.6c2.1-.8 5.6-.9 7.3-2.4 2.6-2.2 1.5-4 2-7.8 2-16.8 12.6 2 17.3 7.5 3.6 4.3 7.1 9.7 11.9 12.4 6 3.4 7 1.8 9-3.9 3.6-10.5 5-22.6 18.8-21-11-10.3-21.3-19-30.7-31.4-9.2-12.2-17.8-25.3-26.6-37.8-7.3-10.2-13.6-24.4-23-32.5-3-2.6-12-8.5-15.4-8.4-5.2.2-9.7 9.5-15.3 10.3-6.1.8-9-1.5-10.7-7-1.8-5.7 2.6-12.2 1-16.4-.3-1.1-3-2.5-3.7-4.2a15.9 15.9 0 01-1-8.5c.6-4.2 1.9-5.9 1.6-10-.3-4.9-2.2-8.4-.7-13.5 1.6-5.3 6.5-8.2 9.5-12.2 4.7-5.9 2.3-10.4.4-18-4-16.4-8.6-32.5-12.6-48.9-9.3 3.3-18.4 7-27.7 10-9 2.8-20 5.4-28.4 10-5 2.8-3.6.2-3.3 6.4.3 3.9 1.8 8.3 2.5 12.2 1.3 7.2 1.9 25.8 7 29.2 3 2.1 8-1 11.5 3.3 2.9 3.5 2 8.7 3.7 12.6 1 2.5 3.2 3.4 4.5 5.6 2.7 4.7 2.4 8.7 2.9 14 .3 3.3-.2 13.2 1.3 15.8 2 3.4 6 2.8 9.3 3.9a78.2 78.2 0 0123.3 12.8c3.7 5 30.2 34.3 18.7 38-5.6 1.8-15.4-12-19.4-15.8A66 66 0 00188 603c-18.5-7.8-35.2-14.9-55.3-11.6-8.6 1.4-19 5.6-27.7 4.7-8.7-1-6.5-9.5-1-14.3 4.8-4.3 11.6-3 13.8-10.3 2.1-7.2-.2-16.3 3.3-23.6 3-6.2 9.9-12.6 15.3-16.2 2.3-1.6 6.3-2.6 7.6-5 1-1.8-3.2-12.7-3.8-15-2.8-11-5.8-22-8.2-33.2-2.2-10.3-2.8-15.7 7-19.4 15.2-5.7 31-8.4 46-13.7-2.6-7.7-11-1.2-17-1.5-7.3-.3-15.8-3-22.8-5.5a45.1 45.1 0 01-29.2-37.9c-.6-4 1.1-12-.2-15.5-1.2-3.3-4.7-5-7.3-7.3a67.5 67.5 0 01-16-23.2 46.2 46.2 0 01-1.8-27.7c1.1-5 1.8-5.8.1-10.6-1.8-5.5-4.9-10.4-6.6-16.1a96.4 96.4 0 01-4.3-29.3c.2-11 4.2-16 7-25.7 2-7.7-.9-18.3-.4-26.8.6-11 3.2-19.7 7.6-29.4 6.7-15 17.3-31 31.2-38.8 2.7-1.6 7.3-1.6 9.7-3.4 3-2.3 3.3-5.6 4.5-9.5 2.8-9.3 6.4-16.9 12.5-24 20-23.2 55-31.4 83-29.5 5 .4 9.8 3 14.5 1.5 3.3-1 6.8-4.9 10.2-6.5a42 42 0 0113.3-3.6 48.6 48.6 0 0125 3.5c3.3 1.2 6.3 2.6 9.4 4 5 2.3 4.7 1.2 9.4.2 9.3-2 14.6-.6 22.9 3.8 2.2 1.2 5.6 2 7.5 3.7 2.7 2.3 3.8 9.3 6.8 10.6 1.6.8 6.7-2 8.8-2.3 3.8-.7 7.5 0 11.2-.1a38 38 0 0119.6 3.6c4.6 2.6 10 7.6 14 11 5.4 4.5 8.8 13.2 15.6 15.7 2.6.9 5.5 0 8.2.8 3.5 1 6.9 3.8 9.7 6.3 5 4.3 9.1 14.2 14.1 16 3.4 1.1 8.6-.1 12.4 1.1a26 26 0 0112.3 7.7c6.8 7.6 8.7 18.9 9 29.2 0 2.8-1.5 10.7 0 13.1 1.4 2.2 6.4 3.5 8.5 5.8a49 49 0 0110 28.4c.8 11-1.8 18.7-3.6 29.3-1 6.5-2.5 2.3 2.5 6.2 3.5 2.7 5.9 4.5 8.1 8.7 4.7 8.7 5.9 19 5 29-.9 12.3-6.6 21.5-9.2 33.3 11.9 0 24.6 3.4 36.1 5.8 4.3.9 7.6 3.5 11.4 5.5 3.3 1.8 5.7 2 8.8 3.2 7.4 2.9 6 2.4 11.2-3.5 20.6-23.3 50-37.4 79.7-37 16.5.3 32.5 2.7 48 9.3 6.4 2.7 13.5 5.6 19.2 9.9 6.6 5 7.5 4.9 16.2 5 31.6.8 62.1 19.4 85 42 2.1-15.1 24.5-24.2 35.3-30.5 3.7-2.1 7.1-3.3 9-7.3 1.6-3.7 1.5-11.5 2.7-16 2-8 4.5-18 4.3-26.6-.5-24.9-5.8-49.6-6.4-74.6-.2-6.2-.9-13.2-.1-19.4.6-5 2.7-8.2-.3-12.8-5.7-8.7-16-11-19.6-22.5-5.6-18.6 4-37.6 17.3-48.7 7.6-6.4 15-7.7 21.2-16.7 5.5-8 10.1-17.5 16.4-24.9 5.3-6 10-14.3 16-19.4a71.6 71.6 0 0122.7-11.3c17.7-6 39.5-4.5 52 12.2zM442.7 533c-4.1.1-8.3.7-12.4.7-2.5 0-8.4-1.5-10.6-.5-4.5 2.1-8.2 13.6-10.3 18.2-6.8 15-12.2 30.6-19 45.6-3.4 7.8-8.6 12.9-16.8 13-9.2.2-13.5-6.3-19.3-13a197.1 197.1 0 00-41.7-33.9 160.3 160.3 0 00-51.9-23.1c-11.8-2.3-38.9-12.4-46 3.9 3.6-.6 17.6-3 18.2 4 .5 5-16.8 6-18.9 14 4.5-.4 20-5.2 21.2 2.2.6 4-6 5.9-8.2 7.2a42 42 0 00-10.9 9.3c5.5 0 11-5.1 16.2-4.6 2.2.2 4.7 3.8 6.7 4.9a25 25 0 008.9 2.7c6.6.9 10.7-1.2 16 3.6 4.8 4.3 9.8 10 14.2 14.8 9.4 10.2 17.1 23.2 25.2 34.7a168.3 168.3 0 0033.6 36c10.7 8.7 21.7 14.3 33.9 20.7 12 6.2 27 13.5 40.7 13.8 10.8.3 24.4-3.5 34.3-8.6 5.7-3 7.8-3 13.5-4.2 9-1.8 19.3-7 27.5-11.2 26-13 42.4-41.3 54-69a205.8 205.8 0 0013.7-48.3c1.5-9.3 2.8-11.5-5.4-15.3-8.3-4-17.3-6.3-26-9-25.3-8.1-54.2-9.9-80.4-8.6zm62-168.3c-2.6 1.3-4 15-5.2 18-5.2 13.7-14.4 22.2-27.8 23.6-4.2.4-11-3.8-14-1.8-4 2.7-4.8 15.4-9.1 19.5-4 3.9-12.3 8-17.4 9.4a22 22 0 01-11.7-.2c-2.3-.6-6.6-3.6-8.7-2.5-3.8 2-5.5 12.4-9.8 16-6.2 5.1-16.1 9-23.8 8.9-7.8-.1-17.3-7-24.3-5.3-8.3 2-7.2 10.4-10.9 17-7.7 14.2-16.4 26.4-30.3 33.2a85 85 0 01-52.2 4.5c-8.5-2-17.1-4.9-24.3-10.3-5.8-4.3-10-10-15.4-14.9l-.9-.8v.2l.4 1.3c2.6 9 3.7 24.7 8.7 32 4.5 6.5 20.2 6.9 27.7 7.7 20.2 2.4 37.6 7.6 55.4 18.7 17 10.7 32.6 23.6 47.3 37.5 3 2.9 5.5 7.5 9.2 9.3 6 3 5.5-.5 7-6.3 3.3-12.1 6.7-24 11.7-35.3 2.1-5 7-11 8-16.1 1-5-1-10.4-.4-15.7a87 87 0 0114.2-35.8c4.8-7.6 19.1-20.4 17.3-1.4-1.4 14-10.7 26.5-13 40.2 7.1-1.4 11.5-1 17.9-.5 8.6.6 18.5-3.2 27.4-3.2a253.4 253.4 0 0150.8 4.5 132.1 132.1 0 0122.8 6.3c5.9 2.3 13.7 9.6 20 10.2 4.6.4 3 1 4.2-3.2 1.2-4 0-11.2-.3-15.3-.5-9.5-2.6-18.6-3.6-28-.5-4-4.8-20.8-.2-24 7-5 10 14.5 10.8 18 4.6 17.9 7.6 35.5 7.4 54.3a293 293 0 01-3.8 47.9 151.5 151.5 0 01-8 27.6c-1.7 4.7-12 22.5-10.6 25.6 1.1 2.5 18.7-1.8 21.4-2 9.6-1 19.3-.4 28.9-1 14.2-1 28.6-.7 42.2-3.5 8.1-1.6 16.8 0 24.9 0 9 0 17.6-.9 26.6 0 6.9.8 17.2 4.8 23.8 3.1 6.7-1.7 4.7-6.7 4.8-14.2a286 286 0 00-5.1-57.3c-2-9.4-4.6-18.5-6-28s-1.4-19.9-4-29.1c-4.6-16.4-17.4-30.7-28-42.8a175.7 175.7 0 00-36.2-30.5 296.8 296.8 0 00-35.6-20.7c-14.8-7.2-31.5-11.6-45.2-21a150.7 150.7 0 00-41-19.1c-2-.6-12.6-5.4-14-4.7zm405-151.7c-9.5 1.5-27.2-3.6-27.2 10.7 0 8 2.4 16.2 3 24 .9 9.4.3 18.7 1.6 28 2 15 5.1 28.9 4.1 44.3-1.1 16.7-4.3 32.8-4 49.8.3 16.2-.5 31.8 6.5 46.6 3 6.3 5.3 13.7 8.6 19.5 3.8 6.9 7 9 13.8 11.7 4.3 1.7 14.7 4 17.5 8.6 4 6.8-1.3 9.5-6.6 9.3-16.1-.7-32.7-8.7-47.8-14.5-7.1-2.7-14-6.1-21-9.1-5.6-2.4-10.1-3.2-15.2-7.3-12.4-9.8-22-23.5-34.2-33.7a152.4 152.4 0 00-79.9-34c-7.5-.9-13.3-.5-20.7.2a113.5 113.5 0 00-12.4 1.3c-2.3.5-11.3 5.2-13.1 4.2-12-6.3 22-25.4 25.8-26.5-4.8-3.7-14.8-3-20.6-3.9-7.4-1-14.6-2.1-22.1-1.7-10.5.7-21.6.3-31.8 2.8a137.3 137.3 0 00-36.7 14.6c-3.9 2.2-9.3 5-9.3 11.2 0 5.9 2.2 5 7.4 6.2 14 3.5 26.8 13.7 39.3 21.5a397.4 397.4 0 0138.6 27.4c23.6 19 37 46.2 47.4 75.9a220.8 220.8 0 0111 49.6c1.8 18.1.3 36.4 1.6 54.6.3 4.3.8 21.4 3.7 24.1 2.3 2 13.3-1.6 16.5-1.8 13-1 26.1-1 39-1.7 27-1.8 54.7.6 82-1.1a257 257 0 0040.5-6c12.5-3 28.1-3.3 39.5-9.8 22-12.6 35.4-43 36.4-68.8 1-27.9-.7-58.3-6-86-2.8-14.6-5.2-28.5-8.5-43-3.7-16-7.8-32.1-11.9-48-6.9-27.5-17.7-53-22.9-81.1a542.2 542.2 0 00-11-46.7 67 67 0 00-8.3-20.4c-3.8-4.4-7-1.9-12.6-1zM138.5 547c-5.7 4-9.8 13-9.5 20.4 0 9.9 7.4 5.7 14.3 6 4.3.3 20 5 22.8.4 3.3-5.5-6.7-3-8-6-2.4-6 9.2-8.5 7.8-13.7s-13.3 6.8-15.8.7c-2.4-5.6 9.6-10.4 7.8-14.3-1.6-3.2-17.4 5-19.4 6.5zm24.8-51.2c0 4.2-1.4 9.7-6.1 8.9-6-1.1-7.7-13.6-8.2-18.3 3.7-15.6 14.3-.2 14.3 9.4zM334.6 362c-6.8 1.2-7.6 4.6-10.7 9.7a8.3 8.3 0 01-2.8-5c-16 8-32.9 14.2-50.4 17.2-19.5 3.3-39.8-1.7-59.6-3.8-2.6-.2-10.5-3.7-12.6-2.3-1.7 1.1-1.7 10.7-1.8 12.6-1 12.7 1.2 23.9 3 36.3.4 3.3 0 10.5 2.3 13.3 1.7 2 4.6 1.3 6.7 4.3 5.7 8 7.5 23.7 10.1 34.1v.3-.2c.9-10.6 8.4-5.2 14-2.4a88.9 88.9 0 0026.4 7.8c7.4 1.2 15.7 3.9 23.2 3.5 8-.5 17.7-4 25.4-6.4 7.3-2.4 11.3-7.5 16.3-14 4.8-6.3 10-10.5 15.2-16.1 13.1-14 9.5-43.2-1.8-57 9.2-5.2 25.1-16.6 11.1-28.2a19 19 0 00-14-3.7zM219 478.8v.2zm44.7-24.2a5.8 5.8 0 015.3 7.5c-1.2 5.2-9.4 8.5-13.6 8.8-10.9 1.4-.6-17 8.3-16.3zm-34.5-20c.4 3 0 4.9 2.4 5.9 1.8.7 5.3-.8 7.5.2s2.3 1.7 3.7 4.1c-1.5 5.4-8.7 11.5-14.4 8.3-7.1-4-7.8-19.9-5.9-26.6 3.4-11.5 6.1 3.5 6.7 8zm634-60.5c-3 1.2-5.6 4.5-8.3 6.4-7 4.9-14.8 7.5-21.5 12.8 4.8 5.8 7.3 13.6 12 19.1 3 3.5 6.6 3.8 10.2 5.7 10.4 5.5 22.6 13.2 34 15.9a97.3 97.3 0 01-14.9-27c-1.4-3.8-3.2-7.8-4.3-11.7-1.5-5.6-.7-11.5-2-17-1.4-6 .5-6.5-5.2-4.2zm-653.6 32.8c3 4 5.4 12.8 5.6 17.8-3.2 16.8-13.9-6.4-13.5-14 .3-6.9 3.6-9.4 8-3.8zm29-9.2c5.1 4.8 6.8 13 7.4 19.7.5 7.3-1 10.4-7.6 5.7-5.7-4.1-8.6-15-8.9-21.4 0-7.3 4-8.7 9-4zm104.2-20.9c1.3 7.6-14 15.4-11.5 3.5-.5-7.5 10.1-11.5 11.5-3.5zM1064 239.3c-11.6 15.5-25.5 25.4-40 37.1-12.8 10.4-25 21.6-38.8 30.3-4 2.5-10.7 4-11.5 8.7-.7 4.4 6.8 16.3 8.5 21 5.8 16.2 10.1 32.8 14.7 49.5 13.5-23.2 27.2-46.9 43.8-68 14.7-18.5 29.7-38 42.5-58a66.4 66.4 0 01-19.2-20.6zm84.5-35.8a97.1 97.1 0 01-41 5.5c-6-.7-12-1.3-18.2-1.7-4.6-.3-12.3-2.8-16.3 1.1-3.7 3.7-3.3 11-1.4 15.6 1.3 3 3 3.4 4 5.9.4.8-.6 2.1.3 4a53.2 53.2 0 0015.8 16.2c6 3.4 6.9-.5 11.6-3.9 9.8-7 26.2-7.2 37.7-8.4.2 2.7 33.5-10.4 36.8-12.8 6.2-4.5 13.4-25.2 6.8-31.3-7.9-7.4-28.4 7.2-36 9.9zm-223.8-98.4c-4 7-9.4 14.7-15.4 20-6.7 6-15.5 8.3-23.2 12.5a41 41 0 00-17.5 14.6c-3 5-8.6 11.9-6 18.3 2.5 6.5 12.7 11.1 17 16.8 6.2 7.8 6.2 6.3 15.3 4.1a48.8 48.8 0 0113.5-1.2c1.9 0 8.2 2 9.9.7 2.1-1.7 0-9 .3-11.8a61.9 61.9 0 013.1-12.8c5.2-16 15.1-26.6 24.7-38.8 10.3-13 24.5-22.2 34.6-35.3 5.7-7.3 3.1-12.4-4.6-15.8-4-1.7-8.5-1.7-12.5-3-4.2-1.5-7.9-4.3-12.3-4.3-19-.9-19.5 23.1-26.9 36z"/></svg>