<svg xmlns="http://www.w3.org/2000/svg" viewBox="0 0 1200 800" width="1200" height="800"><path d="M404 363.4L415.4 478l61.8-35.3v110c0 2-1.2 9 0 10.8 1 1.5 8.6 1.5 10.4 1.8q17.5 2.4 35 4.4c31 3.4 64 8.2 95 4.3 26.8-3.4 53-13 77.5-24.1q13-5.9 25.5-12.6c1.8-1 8.2-3.2 9.2-5 .8-1.7-1-7.2-1.3-8.9l-3.1-21-14.5-97.5 27.4 27.4c2.1 2.1 6.2 8.2 9.2 9.1 2.2.7 7.6-1.4 9.7-1.8l46.6-9c3.6-.7 11.8-.7 14.8-2.9 1.7-1.1 1.7-3.5 2.3-5.8l11.4-44.5c.7-2.7 4.5-11.1 3.5-13.8-.3-1-2-1.6-3-2.3l-70.4-42.9L724 295c-5.4-3.3-12-9.2-18-11-3.8-1.2-9.3-.3-13.3-.5l-23.8-.6c-1.3 0-5.6-1-6.7-.2-.8.6-.5 1.4-.8 2.9-.7 3.5-.7 7.4-1 11-.3 2.9.3 8.2-1 10.8-.9 1.7.2 1-1 1.8-1.3 1-5.6.7-7.2.9l-23.4 2.7c-9.2 1-18.6 3-28 2.1-14-1.4-29.2-1.3-43.1-4.3-3.6-.7-4.9-2.8-7.7-5.5-5.4-5.5-10.8-11-16.3-16.3-2.6-2.6-1.5-2.2-4.3-1.2-3.4 1.3-7 4.3-10 6.2l-36.2 22-73.5 44.8-4.6 2.8" fill="#90b1d3"/><path d="M1107 368.1c-18.1 68.8-61.5 143.5-141.8 145.1-17.4.4-33.4-4.7-50.4-9.4a401 401 0 01-61.9-23.8c-13.5-6.3-39.9-10.3-34.5-29.8 6-21.5 14.2-42.3 18.9-64.1 13.8 16 33.2 26 53 32.4 19.5 6.3 44.3 12.6 64.7 8.7a42.3 42.3 0 0021.7-9.8c2.3-2.3 6.2-6.5 4.5-10.2-1.5-3.4-5.5-2.3-7.7-5-3.6-4.3-3.2-16.1-4.7-21.5-3-10.2-7.6-19.8-9.8-30.2a46.3 46.3 0 013.7-31.3c2.1-4.1 7.5-16.2 13.1-15.7 8.2.7-.1 23.2-.8 28.4a101.5 101.5 0 0010.6 59.7c9.3 17 26.3 24.8 39 5.9 11.9-17.8 6.8-42.5 1-61.5-7-22-23.7-38.2-34.3-58.3 18.6 1.9 29.3 17.7 37.6 32.8a148.8 148.8 0 0112.6 30.7c3.4 12 2.3 22.3 2.8 34.3 0 3-.5 12.9 4.6 12.8 5.4-.2 6.4-11.8 7.2-15.7 4.8-22.2 4.8-47 11.6-68.4 1.6-5 3.3-11.2 7-3.6 2.8 5.5 1.1 18.5 1.2 24 .2 10.1-2.8 21.6-.7 31.5 2.6 12.5 7.8 5.4 10.4-4 2.2-7.5 9-52.9 20.6-45.3 12.2 8 3.4 51.3.8 61.3zm-295.5 15c-1.2-.5-6.4-2.3-7.3-2.1 1.5 3.8 3 2-2.3 1.7-2 0-4.3-1.3-6.5-1.4l-2.4 2.3-1.7-1.7c-1 0-2.2.9-2.9.8-2.2-.1-3.3-1-6-1-1.7-.1-5.7.3-7 .4-.7 0-3.2 1-4.3 1-4-.6-8-1.9-12.1-2.3-1.8-.2-3.3 1.4-5 1.2-1.3-.1-3-3-4.5-2.8-3.7.7-4.8 3-8.1 3.2-.3 0-3.3-1.9-4-2-4.1-1.2-4.7 3.5-8.6-.6-.7 2.5-4.8 2.6-6.5 2.8-5.7.6-6-1-9.4-3.9-.9 4.9-19.7 4.7-24.4 4.5-1.7-.1-3.3-2-5.3-2.2-7-.4-12 2-19-.8 2.4 4.2-3.4 2-4.8 2.1l-2.1-.9q-1.8-2.4-3.7.7c-5-.3-16.4 2-18.3-4-2.5 7.7-17.2 3.4-22.3 1.3a5 5 0 01-2 4.6c-1.3-5-7-.6-6.2-7.2-2 1.3-5.1 2.5-5.7 5.2 1.2-.3 1.3 2.2-2.2-.8-.7 7.4-2.2-.2-4.6-.6-1.6-.2-2.6 1.5-3.8 1.4-1.8-.2-5.9-2.4-8.3-2-2.4.3-3.7 1.9-6.3 2.1-2 .2-2.7-3-4.9-2.8-3.3.4-12.5 9.6-8.5-1.8.2 0-12.8 6.5-13.2 7.3.1-1.6 2.2-3.1.4-4.6-4.1 8.8-9.8 1.7-14.5 1.6-2.8 0-9.1 2.8-12.4 3l-4.7-.7c-2.2 0-7.5 1.4-10.4 1.5-4 .2-9.6 2.8-10.6-1.9l-4.2 3.8c-1.4-6-1.4-1.3-6-1-3.3 0-7.2 2-10.4 1.7-2-.2-4.8-1.5-5.7-1.6a44.5 44.5 0 00-17.7 1.2c4.7-1.2-5.9-.3-3.1-.2a16 16 0 00-7.6 1q-.4-1.8-1-3.4c-.3-.2-5.6 7.7-6.1-.7-4.5 6.8-22.2 4.5-25.2-3.5 5.9.7 12.3-1.9 18.1-2.3 3.1-.2 4.6.4 7.8 0 9.7-1 20-2.5 30-3.3a2063 2063 0 0164.8-4.4c7-.3 15.8 1.5 22.2 1 9.8-1 20-3.9 30-3.4 6.2.3 8.8 2.2 14.8 1.1 3.5-.6 13.1-5.6 14.2 1 7.7-5.3 18.8-1.7 27.4-1.9l36.8-.7c11.8-.2 23.3.5 35 1.4 5 .4 10.6-.7 15.3 0 0 0 8 3 7.4 3.2 5.4-5 19-1.9 26.3-1.9 7.8 0 23.7-1.6 29.5 4.8-1.7-5.6.3-2.5 4.8-2.7 3.4-.2 6.4 1.1 10 .5a9.5 9.5 0 00-3.3 4.3c2.9-.4 11.3-1.3 13.7-2.8l1 6c3.5-.7 1.3-3.8 1.5-6 8 2.3 2.7 10.3-3.9 8.1zm-5.2 37.4c-1.5 4.2-12 1.7-15.2 1.2-3.3-.5-7.2-1.7-10.6-1.7-1 0-4.6 1.7-6.2 1.4-.1 2 1.5 1 2.6 1.8-2.7 1.8-2.2-1-5-1-3 0-6.7 1.3-9.8 1.4-3.5.2-26.6-1.3-27.1.3-2-3.2-5.2-5.5-7-8.8 16.7-1 33.4-.6 50.1-1.2 7.4-.3 33.4-8 28.2 6.6zm-231.7.5c5.9 1.7 12.3.3 17.5-.3 9-1.2 18.2-.4 27-1.5 20-2.3 40.6-2 61-3.4 6.5-.4 15-3.1 21.5-1.3 7.7 2 7.9 10 0 12.8-2.2.7-6-.3-8-.1-2 .2-3.6 1-6.5 1.3-6.5.6-17.4 2.2-21.6-3.5 1.2 7-5.5 2-11.8 3.1-4.3.8-7.8 2.9-12.3 2.5-.5 0-.5-2.2-.2-2.2-.8 0-3 0-3.8-.3-2.8-.5-8.2-.6-10.6 1.6a6.5 6.5 0 01-1.9-5.6c-2.9 2.5-3.2 6-7.4 6.6-2.1.3-3-2.2-4.5-2.1-2 0-3.5 1-5.5 1.2-4.8.5-16.7-2.2-15.7 3.1a9.9 9.9 0 01-5.4-2.8 4.6 4.6 0 01-4.9 2.4q-2.6 3.5-4.8-.5a19.5 19.5 0 01-5-3.2c.6 5.6-4.9 2.8-9.4 2.6-6.9-.4-8 1.3-14.2 2.8-6.5 1.6-15 .7-21.6 1.4-5.8.7-16.1 2.5-21.5 1.5-7.4-1.3-10.1-7.8-3-11.8 5-2.7 16-1.4 21.4-2 9-.8 17.8-.5 26.8-1.3 5.7-.5 17-3.8 21 2.4 1-1.2 1.1-4 3.4-3.4zm-81 60.3c-1-4.5 39.3-6.6 44.3-7 14-.8 28.4-1 42.3-1.2 2.2 0 4.3 1 5.3 1l5.3-2c4.2-1.1 9.4-.1 13.6 0 29.2 1.2 58.3-1.9 87.3-1 5.6 0 13.8-3 17.7 1.6a7.8 7.8 0 01-3.2 12.6c-3.3 1-9-.5-13 .1-4.4.7-11.4 3.8-15.2.2a2.7 2.7 0 002.5-1.8c-.1.3-8.7 1.2-10 1.2l-2.2-2.7-2.7 2c-3.1-1.5-2.3 1-4.3-4-.5.4-3.7 6.7-3.4 6.7-1.1 0-2-2.8-2.7-2.8-1.3 0-6.4 3.7-5-.5-1.7 2.3-2.7.6-3.3-1.3-5 3.8-9.4 6.1-11.4 1.4-1-2.1-4.5 4.7-4.2 4.4-3.9-3.8-14-3.8-18.4-4a12.2 12.2 0 00-2.4-2.2q-3 0-2.2 1.5c.3 0-.5 5-.6 5.6-5.4-3.7-2.8-1.9-9-2-3.4 0-6.6 1-10 .9-2.5 0-13.7-4-14.2.7.4-3.3-17.7-.4-22 0-8.7 1-18 0-24.5.8-3.8.5-10.8.3-16.2.9-3.6.3-14 3.8-17.2 1.6-3.4-2.5-.2-6.6-1-10.7zm-9.8 55c-2.3-3.3 22.8-6.8 25-7.2 5.8-1 11.8-.6 17.4-.7 5.6 0 11-1.4 16.7-2 12.3-1.2 25.7-1.8 38-2 1.7 0 4.6 2 5.3 2 1.6-.2 3.6-2.4 5.7-2.6 6.7-.6 13.5-.7 20.3-1 6.3-.3 12.6.3 18.9 0 4.7-.3 10-2.3 14.7-1.6 1 .1 4.5 2 5 2 3.1-.3 6.1-2.6 9.9-3 10.7-.9 22.1 1.6 32.4 1.2 5-.2 14.1-4.5 19.3-2.2 3.6 1.6 6.6 7.7 2 10.6 1.3-.1 4.4 1.8 2.6 3.1-1.9 1.4-2.9-.3-5 .3-4.7 1.3-11.6 1.2-16.7 1.5-3.3.1-6.9.5-9.9.2-1 0-1.8-3.3-3.1-3.5-2-.3-2 3.4-2.7 4.3-.3-3.3-3.9 1.8-5-2.4-5.1 7.3-8.1.9-9.8-3.4-.4 1-2 4.4-3.6 4.5q-1.9-1.2-1.1-3.7c-1.6 2-6.5 2-5.3 5.6-2.1 0-2.6-1.8-5-1.5l-3.3.2c-5 .3-10.1.6-14.9.7-2.8 0-24.4 6.7-23.2.6-3 1.5-24.6 7.2-25.6.5-1.2 2-6.4 3.6-8.6 3.6-.6 0-1.3-2.4-1.7-2.4-.6.1-2.7 1-3.7 1-5 .3-17.4 4.8-20.3-1.5-3 5.7-7.4 3.7-13 3.9-8.9.2-17.3 1.6-26.3 1.3-6.3-.2-12.5 2.2-18.7 2-10.3-.5-3-3.2-6.7-8.3zm16.7 93.4c-24.8 16.6-44.3 40.6-65.3 61.4-10 10-21.7 18.5-33.5 26.3-10.4 7-17 8.4-11.7-6.6 9-25.1 21.3-55.6 38.9-75.8 20-23 46.4-11 71.6-5.3zM535 635a95 95 0 01-29.4 9.3c10.7-8 15.4-13.9 29.4-9.3zm219 21.8c-19-6.4-36.5-16.1-55-23.3-3.7-1.5-25.7-7.3-25-12.4 18.5-3.4 37.2-8.8 55.4-1 14.7 6.3 25.3 18.5 37.5 28.3 3.1 2.5 20.6 12.7 19 17.4-4 10.9-27.8-7.7-31.9-9zm-33.9-103.5c8.3-7.6 9.5-13.2 21.9-7.8 10.4 4.4 19.7 11.6 29.9 16.7 22.9 11.3 43.9 26.5 65.8 39.5 40 23.9 86.5 43.3 116.3 81 11.8 14.8 33.6 43.5 25 63.8-4 9.8-14.2 17-22.1 23.6a39.6 39.6 0 01-28 11.4c-53.4 3.2-105.8-8.6-158.6-15-27.1-3.4-53.9-7-79.4-17-25.8-10-54.7-9.5-80.5-20.5 22.4-9.3 46.1-15.2 69.2-22.7a352 352 0 0165.9-14.8c22.9-2.8 44.5-10.6 67.6-12.7 5.2-.4 13.3.6 17.6-2.8 5.6-4.6 2.6-10.1-3-12.6-6-2.8-13-.4-19.2 0-10.6.7-15.1-4.5-22-12-14-15.2-28-33-45.8-43.7-18.7-11.2-40.3-9.4-60.8-5.7-23.8 4.2-47.7 8.7-71.3 14.2-19.5 4.5-38.1 13.9-58.4 11.2-21-2.8-37.8-13.1-57.4-20.6-20.1-7.8-44.2-13-63.2.2-17.2 11.9-29.5 33-40.6 50.2-11.2 17.2-23.1 38.2-25 59.1-.6 7.6-.6 18.8 5.8 24 2 1.7 5.5 2 7.8 3.6 3 2.1 5.2 6 8.8 7.5 16.5 6.6 41.2-25.5 51-35.3a184.3 184.3 0 0020.2-23.4c6.3-8.8 9.1-14.8 19.6-18.5 51-17.6 102.9-29.4 154.8-43.3 12-3.3 20.6-6.5 32.1-.4 10.2 5.4 19.6 12.2 30.1 17.2 11.4 5.5 23 10.3 34.8 14.7 8.3 3.1 20.8 3.4 27.2 9.7-33.8 5.1-66.3 15.8-99 25.4-31.5 9-62.6 21-94.3 28.8-64.2 15.9-129.2 29-194 41-28.6 5.3-56.8 12.9-85.8 15.5-19.4 1.8-45.3 2.2-58.8-14.5-19.4-24 2.3-54.7 20-72.2 22.5-22.2 51-40.2 77.5-57.3 30.7-19.9 63.7-35.5 96-52.3 10.5-5.5 33.5-24.7 45-19.3 4.8 2.2 8.5 7.5 12.8 10.7 2.2 1.7 4.5 3.9 7.3 4.6 5.5 1.5 7-2.4 8 4.3l5.7-2.6c3.5 9.3 12.9 5.7 14.7 11.5 2-.2 2.2-5.4 2.5-6.5 3 4.5 7.4 8.3 12.8 9.5 0-.3-1-3.9-.8-4 3.3-2 5.5 10.3 13 4.5l1.4 3.2a10.4 10.4 0 002.3-3c-.2 2.2 11 7.7 7.2.3 7.4-1 12 8.6 19.1 7.1-2 .5 5.6-2.7 3.2-2.4a2.8 2.8 0 013.4-2 9.3 9.3 0 011.5 2.8c4-4.3.6 2.7 5.2 2 2.4-.3 5.3 1.9 4.7-3 14.8 6 30.9 4.1 45.9-1.9a120.5 120.5 0 0019.7-10c4.3-2.8 11.3-11 17-7.2-.7-2.3 1.5-2.2 3-2.5 4.4-1-1-5.6 5.5-.7a19.3 19.3 0 014-6.3c3.3-4 4-2.9 7.7-5.1 2.2-1.4 11.6-10.9 10.1-2.6 4.6-1.6-.3-4.3 1.5-5.4q0-3 2.4-2.7a20.6 20.6 0 002.7 1.3c3-1.3 3.4-1 6.3-3.4 2.1-1.8 6.6-5 5.5-8.4a4.7 4.7 0 012 4zM474.4 436.6c-4 4.5-6.4.4-10 .4a59 59 0 00-13.3 3.3 6.3 6.3 0 00.4-3.6c-4.2 2.9-6.5 2.5-11.2 3.1-4.3.6-8 1.3-8.4-2.4-6.2 3.1-1.3 2.2-4.4-1.6-3.5 7-21-1.7-.4-4 10.3-1.3 35.5-6.7 42 1.1-1.4-5.5 14.3-6.2 5.3 3.7zm-251-102c1 18.9 1.5 34.9-13.8 48.7-14.7 13.3-28.5 2-30.6-15.1-1.8-14.4 3-32.6 16.4-40.2a28.2 28.2 0 0122.4-2c2.3 1 4 .3 5.3 2.8.3.4-.1 5.9.2 5.9zm181.4 132.5c-10.8 5.4-21.2 11-32.4 16.6-5.4 2.7-34.4 10.8-33.9 18.8-.8.2-2.4-1.8-3.2-1.4l-6.4 2.9c-4.2 1.7-9 1.7-9 7.5-5.6-3.8-2.3-2.3-8.3-1-4.1 1-7.2 2.2-10.8 3.2-4.5 1.4-21.6 1.4-18.9 9.1-3.4.7-6.7-2.2-10.3-2-6.2.3-14.2 4-20.3 5.4-5.5 1.3-10.4 1.5-16 1.9a66.7 66.7 0 00-7.8 1c-3.1.7-8-3.6-4.7 2.3-6.5-1.4-9.5-5-16.9-4.2-1.3.1 1.4 2.7-1.5 2.5s-1.9-1.6-4-2.3c-4.8-1.5-8-2.6-14.1-2.3-29 1.5-57.4-23.2-73.7-46C94 453.2 87.8 422.6 88 391a383.4 383.4 0 014-50c1.3-9.6 1.6-24.8 12.2-29 2 23-5 46.8.4 69.7 1.2 5.2 4.5 17.6 11 18.9 7.3 1.3 7-12 7.7-16.5.6-4.2 11.6-92.1 22.2-89.3-1 18.7-3.2 37.3-3.7 56-.3 9.5-4.7 38.2 7 44.5 11.8 6.4 2.6-16.3 2.8-21.8a134 134 0 0111.4-50c11.5-25.7 42-55.5 65.8-26.3 3.4 4 9.2 7.9 4.6 13.4-4.4 5.3-12.4 1.9-17.7.7-17.1-3.8-30.6 4-38.8 19.3a67.1 67.1 0 001.2 62.1c15.7 26.3 43.4.3 51-19 4.4-11.3 2-20.7 2.7-32 .8-12.9 15-18.9 20.6-5.3 5.3 12.6-2.6 29.8-8.8 40.3-9 15.2-22.4 24.3-34.5 36.7-14.9 15.2 7.1 17.4 19.4 18.4 19.8 1.8 40-1.4 59.6-4.3 40.8-6 80.9-19.5 114.5-43.8 1.4 16.4 3.2 32.6 3.9 49 .3 6.7 5.9 30.6-1.7 34.4zm-117.6 54.2c-2.5 1.3.9-7 1.6-1.3zm176-188.4c2.4-2.7 9.9-10 12.2-3.3 1.5-5 7.8-6.4 14.5-7.2 10.3-1.3 21-1 31.3-1.6 31.5-2 64.4-5 96-2 28.7 3 58.2 2 87.4 2.5 13.2.3 27.9-1.7 40.8.4 2.2.3 20.7 6.4 11.6 10-2.3.8-9-.9-11.5-2.5 0 .5 1 3.8-.2 4a5.4 5.4 0 01-2-3.9c-4.3 3.8-32.4 7-36 1.4a4.8 4.8 0 01-2.7 3.8 124.8 124.8 0 00-17.7-1.3c-5.1 0-21.2 1.5-24.4-2.9 0 0-8 2.5-10 2.4-5.3-.3-6.9-.8-11.4-.9-6.1-.1-12.3 1.3-18.5 1-5.1-.2-10.3-.2-15.3-.5-4.6-.3-7.7-3-11.9-3.6-2.6-.3-2 1.3-4.4 1.8-2.6.6-15.5 1-7.1 0-3.2-1.4-8-2.1-7.1 3-3.7-.5 1-3.7-4.2-3a153.5 153.5 0 01-16.3 1.5c-6 .2-18.6 4.6-22.9-1.7-.1 1.3-1.4 4.8-3.3 4.6-.5 0 1.2-4 1.3-4.2-1.3 2.7-7.9 6-6.6.2-4.3 4.6-10 2.5-15.2 2.4-3.4-.1-8.2.8-11.6 1-3.6.1-4.6-5.3-6.9.6q-1.6-5.8-3.6.3a5.8 5.8 0 00-5.8-2c-2.5.4-2.1 2.5-3.4 2.7-.8.1-15.1-3-15-3zm60.8-35.6c1.2 1.9-3.2 2.8-3.6-1.6 1.5 0 1.9 2.7 3.6 1.6zm2-2a3.6 3.6 0 004.8.2c1 2.8-6.3 6.6-4.8-.2zm10 1.3c2.4 1.6-3.6.7-4.5.4a3.4 3.4 0 014.5-.4zm28-12.3c2.7 13.4 16.9-5 18-11.1.5-3.7-.4-9 2.8-11.6 3-2.4 15-.3 18.4-.3 14.8 0 7.8 11.4 16.1 20.7a47 47 0 0019.5 11.3c1.6.5 12 .8 12 2.4.3 3-16 9.6-17.7 10.2a86.2 86.2 0 01-33.5 4.6c-18.7-.3-41.6-6-52.8-22.5zm-1.4-48.9c-2.2-1.8-9.8-9-11.1-11-2.3-3.8 1.4-9-1.4-12-3-3.2-11.4 1.7-12.8-3.4-1.3-5.3 7.7-5.4 10.3-7.6 6.2-5 3-12 5-18.8 2.1-7.4 7-9.2 13.8-11.4 8.1-2.7 16.5-4 24.7-6.3 6-1.6 17.1-8 22.7-2.6a4.3 4.3 0 00-4.4 2.5c.6 6.5 25.9 6.9 30.2 7a55.6 55.6 0 0018.4-2.1c5-1.5 9.6-5.1 15.2-4-4 6.9-12.2 7.7-18.6 10.6-9.6 4.3-4.8 5-2.5 14.7 2.2 9.3-2.5 15-2.7 23.8-.2 9.4 2.1 13.2-4.5 21.5-19.8 25.1-60.6 17.3-82.3-.9zm51.8-128.6c0 .2 0 .1 0 0zm6.3 54.3c-.4.3-5.7 2.1-5.5 0 .3-2.6 4.8-1.4 5.5 0zm11.1-51.5c-1.6-1.2-4.1-.7-2-3.7zM555 89.2c1.3-3.3 3.1-16.6 6.8-17-6-2.7-6.3-21-5.5-26.2.4-2.8 1.9-10.3 5.9-8.2 5 2.7-1.1 8.1.5 11.1a2.8 2.8 0 002.8-2c.8 2.4 1.3 6.5 4.8 6.3a5.2 5.2 0 01-1.1-3c2-3.8 7.3 5 7.5 5.4-.6-1.3.3 9.6 2.7 6.2.7-1.2-.4-3.7-.8-4.8 3.9 1.5 5.2 6.3 8.3 8 3.4 1.7 9 .4 12.8 2.4 3.7 2 6.6 3.9 10.4 5.7 2.6 1.3 4.4 1.5 8.4 2 3.3.5 5.9 2.4 9 3.7a23.6 23.6 0 005.7 2c5.5 1.2 17.4.8 19.4 6 2.4-4.6 3.2 1.4 4.9 2.3 2.8 1.5 5.3 2 8 3.5 1 .5 5.4 5.4 5.5 5.7 1.1 2.5-1.7 7.5 2.6 7.3-.2.8-2.1 3.6-2.5 1.6-1.5.7.2 4.1-.3 5-2 3.6-3.2 4.3-6.7 6.7-8 5.5-16.6 13.5-26.7 14.7 4.2-4.2 22.4-14 16.8-21.4-4-5.2-15.8-1.1-20.6-4-2-1.3-.8-3.8-4.4-4.6-1.8-.5-2 4.8-2.8 5.6-3.6-3.7-6.4-.9-10.7-2.7-1.2-.5-2.7-3.4-3.5-4.4l-3-.7a4.6 4.6 0 00-.1-4c-3.3 4.4.5 4.5-4.9 7.8-2.1 1.4-2.7.8-2.5-1.7-5.5 10-48.8-8.9-46.7-14.3zM566.6 30c.4-.3 1.2 7.3.4 8.4-1.4-2.3-5.2-7.2-.4-8.4zm2.7-3c2.4-2.2.7 4.1.3 4.9-3.4-2.2-3.2-2.3-.3-4.9zM670 17c49.8 10.4 94.3 40.5 108 91.8 5.7 21.4 2.3 45.2-14 61.3a105.6 105.6 0 01-31.2 19.2c-8.4 3.8-23 13.4-32.5 12.3 3.3-3.4 9.5-4.6 13.4-7.7 3.9-3.2 7.5-8.6 12.1-10.9 1-.5 4.5-1.3 5-1.8 1.3-.9 1.9-2.9 3.4-4.8 2.4-3.1 7-10.3 10.8-11.2-5.7-4.4-2.3-13.6-1.4-19.4a158.6 158.6 0 002.1-25.4c0-8.2-1-16-5.2-23.3-4.5-8-8-11.6-8-21.4-6.6 4.4-8.2-13.3-9.2-15a9.6 9.6 0 00-2.5 4c-1.7-.7-5-9.6-5.5-11-5.7 2.9-7.1-4.8-8.6-6.6-3.1-3.9-11.2-6.6-11.8-12.4-4.6 2.9-7.5-2.4-10.3-5.2-4-4-5.6-8.1-10.4-6.5.8-4.3-6-4.3-8.2-6.4zm3.7 274c4.7-4.2 49.2-.5 43.2 9.5-.7 1.2-10.7.2-12.5 0H692c-3 .1-5.6-1.2-8.5-1.4l-3.7-2.4-2 2.3c-2.2 0-6.2 1.2-8.5.5 1.7-2.7 2-6.3 4.5-8.5zm315 24.6l2.3-8.5a121.4 121.4 0 0125.8 47c2.7 9.8 6.7 25.5-2.4 33.3-11.7 10-20-5.4-23.7-14.8a89.6 89.6 0 01-2-57zm-509.3-203c-1 .1-4.3 3.1-5.4 2-1.6-1.7 6.2-3.7 7-3.7zm-7.3 1.8q-3.5 5.1-5.2-1.9c.9-.3 6.2-1.4 6.2.5zm-5.3 136q-2.4-1.6-3.3 1.2c0 1.1 2.2-14.5.5-12.6 2 1 5.1 12.9 2.8 11.3zm-7.7-10.7c1.2-.3-.4 12-2.3 13.5 0-6.2-4.5-20.8 3.6-23.9q-2.3-1.5-1.3-3.7c2.2-2.6 9 11.8 0 14.1zm-3.8-22.8c-1.5-5-6-7-11-6.7.2-2.3 2.3-6.3 3.7-1.7a8.8 8.8 0 012.4-4.2c2 6.6 13.4 11.5 6.6 19l-1.7-6.4zm-13.3-6.3c-28.5 2-73.8 9.7-91-20.6-8.2-14.7-3.7-32.3 7-44.3 5.8-6.6 13.4-12 21-16.5 4.4-2.7 15-4.6 17.4-9a51 51 0 00-1.7 9c-4.8-5.6-.3.6-4.9.8-2.4.1-4.8-.8-7.2-.3 2 2.9 4 4.8 4.2 8.6a14.9 14.9 0 00-8.7-6.3c1.7 5 3 9.2 1.3 14.4-2.2-1.2-2.4-4.3-5-5-.7 3.6-.8 7.3-1.8 10.8-9.8-4.5-2.3 15.8 1.4 18 .3.2 1.2-4 3-3.9-1.2 8.2 7.2 18 13.1 23.2a5.7 5.7 0 00-.8-4.7c-1.7-.3 12.1 2.8 9.5 1.1 3 2 2.3 6.5 7.3 7.4-2-4 12.7-.6 14.6 3.1 6.7-2 9-1.8 10.7 6l2-5.5c.3 0 8.3 5.2 7.6 4.4 2.6 3.2 2.5 5 1 9.3zm-37.3-93c1-.6 9.9-2.6 11-2.7-1.9 6.2-5.5 8.2-10.4 4.5.6 6.2-6.5 4.6-9 .7 1.4-2.6 6.4-1 8.4-2.5zm18.2-4.2c.8 0-.3 8-4 .5zm12.8-1.4c4-.8 16.8-5 18.3 1.6.1-.1 1.4-3.5 1.7-3.2a7.3 7.3 0 011.9 6.2c-2.5-5.2-.6-.3-3-.8-2.9-.8-2.5-1-4.9-3.7-1.1 1.6-8.7 6.6-9.1 2.2.2 2.4-2.3 2.6-6.1 2.1-5.4-.6-4 .2-9-3.7a70.7 70.7 0 0010.2-.7zm23.6 0c1.2-5.6 14 7 .7.7q1.7 1.8.1 3-1.8-1.3-.8-3.8zm661.1 221.7c-.3-10 0-43.7-15.9-45.5-12.4-1.4-17.2 20-20.7 28.4-.5-8.2-4-51-20-31.3-10.3 12.7-9 40.7-10.9 55.8-4.7-9.2-5.9-19.7-9.3-29.4-3.3-9.4-8.5-18-14-26.3-7.4-11.2-25.2-33.7-41.6-25.5-9.8 4.9-4.6 14.4-7 22.2-2 6.9-6.6 5-12.5 9-14.8 9.7-21.2 32-21.8 48.7-.8 21.3 10.8 37.3 15.2 57 2 8.8-.5 10-9 10.2a170.3 170.3 0 01-30.7-2c-21.6-3.2-41.2-13.5-61-22.4-15.4-7-20.6-25.2-36.8-33.4a542.8 542.8 0 01-56.2-34c-18.6-12.6-37.6-28.2-58.7-36.2-16.7-6.4-38-14.3-55.5-7.7-8.8 3.3-13 7.9-22.2 3.1-6.1-3-14-8.6-7.2-14.6 2.8-2.4 7.2-2.4 10.3-4.4 3.7-2.3 5.8-5.7 8.5-9.1 5.1-6.7 9.4-14.8 16.7-19.5 7.2-4.7 16.3-6 24.6-8.2 11.7-3.2 23.1-7.5 34.5-11.8 36.2-13.7 69.1-32.6 69.3-76 .2-37-20-74-48.8-96.7C707.8 9 666.5 0 626.5.1c-34 0-77.3 7.7-77.1 49.9 0 7.8 3.4 16.5 2.2 24.1-1.3 8.5-8.2 10.3-15 13.7-18.6 9.5-38.8 9.8-59.5 9.3-39-.9-77.7 2.4-109.8 27.2-23.6 18.4-39.4 54.8-17 80.6 11.5 13 29.1 17.8 45.8 19.3a174.3 174.3 0 0026.5 0c6.2-.4 18-4 23.8-1.8 11.2 4.3 1.4 35.6 8.4 46.2 8.7 13 27.5 8.3 39.7 4.1 15.9-5.4 33.7-21 50.1-18.9 2.7.3 4.4 2 7.4 1 2.5-.8 3.2-4.9 5.5-5.4 6.5-1.5 17.3 7.3 18.4 13 4 22.8-25 14.8-37.5 13.4-21.9-2.5-37.4.3-55.4 13.7-16.3 12-30.6 27-45.9 40.4a289.3 289.3 0 01-22.4 17.7c-9.1 6.5-8.8 11.6-14 20-8.2 13.3-32.7 21.8-46.5 26.8a392.5 392.5 0 01-66.2 17.1c-9.4 1.7-19 2.8-28.5 3.8-11 1.2-23.4 4.7-34.3 2 6-9.8 17.7-16 24.4-26a76.4 76.4 0 0013.5-35.2c1-10.5.4-23-5-32.2-2.7-4.6-6.6-5.3-9.6-8.9-3.3-4-2.7-6.1-4-11-5.3-20.5-25.7-38-47.7-34.2-20.9 3.6-32.8 24.9-41.9 41.9-4.2-9 2.4-21-3.6-29.3-7-9.8-13.8.2-17.4 7.1-13 25.7-15.5 55.5-20.5 83.3-3.7-3.7-.5-20-.4-25.1.3-10.9 2.2-21.8 1-32.6-2-17.4-14.3-22.4-23.6-5.8-10.5 18.7-7.6 40.9-9.6 61.4a219 219 0 002.8 68.8 141.5 141.5 0 0066.2 90.8c41 24.2 86.5 21 132 14a236 236 0 0074.7-25.3c10.4-5.5 21.4-10.7 30.8-17.7 3.3-2.6 8.3-4.3 11.2-6.5 1-.8 6.2-10.5 5.6-3.5q1.8-4.2 3.5 0 1.4-4.7 3.2-9.4c4.5 2.3 4.3 5.5 9.6 4.9 5.1-.6 13.5-9.3 17.7-12.1 12.4-8.5 23.8-18.5 36.5-26.5 0 14.4-.7 26.5-5 40.3-4.4 14.1-4.4 30.1-10 43.7-2.8 6.5-7 11-8.5 18-.9 4.6.8 6.3-3.2 9.9-4.7 4.2-14.4 5.4-20 7.8-7.8 3.3-15.5 6.9-23.3 10.3-55.4 24.1-110.5 55.1-156.5 94.7-19 16.5-37.5 37.6-40.6 63.6-2.7 22.1 7.4 45.9 27.7 56.4 24.8 12.8 60.1 7.6 86.3 2.9 30.8-5.7 61.4-12.2 91.6-20.2a845.8 845.8 0 0191.5-17.7c14.4-2.2 27.9-7 41.8-11.2 13.7-4.1 32.1-11.7 46.5-12 10.7-.2 22.7 11.5 32.3 16.3a344.6 344.6 0 0043.8 17.7c12.8 4.4 25.4 9.3 38.3 13 16.8 4.7 34 6 51.2 8.7 31.7 4.7 63 8.4 95 8.8 15.4.2 30.6-1.1 46-1.4 14.3-.3 30 3.3 43.7-2.1 19.5-7.8 42.3-27 47.7-48 6.8-26-10.3-53.7-24.6-74-38.1-54.4-105.2-81-161-112.8a289 289 0 00-42.7-19.3c-5.5-2.1-13.6-3-18-7.2-4.4-4.5-4.6-12.4-6.3-18.2-4.8-15.6-10.4-30.6-13.4-46.7-3.1-16.8-8.7-36-5.9-53 20.1 19.4 41 38 61.5 57 5.2 5 16.3 18.7 24.5 14 6.6-3.9 1.8-9.8 11.8-5.8 8 3.2 15.4 10.6 23.1 14.5 10.3 5.3 21 9.6 31.7 13.8 25.8 10.1 51.8 20 79.8 20.4 47.3.9 90.3-19.5 119.3-56.6 30.3-38.7 51.3-90.5 49.8-140.1zm-563.3-79.3l-.9-3.4a3.3 3.3 0 00-.7 4.8l1.6-1.4m85.3 277.4c1.3-1.5-1.1-2-2-2 .1 1.4-.7 5.2 1.5 6l.5-4m-36.1-304.9c-2.5 4.9 3 5.2 5.8 3.8 2.4-1.2 3.7-6.3 4-8.6 1.3-8.7-5.2-19.4-8.6-27-3.3-7.2-6.3-8.8-7 1-.5 9.4 10.2 22.3 5.8 30.8m11.2-18.2c7.7 6.9 14.8-3 15.5-10.5.2-2.2.2-7.2-1.7-8.8-4.9-4-3.3 4-4.4 5.7-6.8 10-4.6-2.9-11-4.4-9.3-2.3-1.8 15 1.6 18m-32.9 1.3c1.6-2.6 7.8-12.3 4.7-15.4-3.8-3.7-6 4.1-8.2 6-10.1 8.6-8.4-4.4-13.2-10-8 10.7 7.5 34 16.7 19.3m12.3 33.6c4.7 1 15-2.9 6.5-6.7-4-1.8-12.6 5.3-6.5 6.7m118-194a3 3 0 00-1.6-3.6q-1 2.5 1.7 3.6m62.9 333q3.6 0 2.1-3.6c-3-.2-4.1 1-2.1 3.6m-121.5-284a4.4 4.4 0 011.5 5.3c1-1.2 3.8-3.8 2.7-5.9-1.3-2.5-5 .2-4.2.5m-83.6-38.3l-1.1-2.2c-1.4 1.1-3.9 4.5-1.5 6l2.6-3.8m29.5 21.5c2.7 2.1 1.6-4.5 1.5-5.6-.6 1-3.1 4.4-1.5 5.6m-1.7-3.7L600 76c-1.2 1.1-2.7 3.6-.7 4.9l1.4-3M620 103c1.3 1.3 1.4-2.8-1.3-3l1.3 3m-81.9 228.5l3.3-2.8c-2.8-1.7-2.4 1.9-5.7-.3-1 1.3.7 4 2.4 3.1M689 531q2.3-2-.3-3.6-2.3 2.1.3 3.6M403.9 198l2.3 2.3a5.4 5.4 0 001-4.8L404 198m26.4 7.7a5.8 5.8 0 00-4.7 0c2.2 1.8 3-.3 4.7 0"/></svg>