<svg xmlns="http://www.w3.org/2000/svg" viewBox="0 0 100 21" width="100" height="21"><path d="M0 20.68V.32h4.217v16.637h11.14v3.723zM43.1 10.5a10.187 10.187 0 01-.844 4.116 10.36 10.36 0 01-5.7 5.57 11.4 11.4 0 01-8.464 0 10.364 10.364 0 01-5.7-5.57 10.186 10.186 0 01-.843-4.116 10.184 10.184 0 01.843-4.116 10.367 10.367 0 015.7-5.57 11.4 11.4 0 018.464 0 10.363 10.363 0 015.7 5.57A10.185 10.185 0 0143.1 10.5zm-4.334 0a6.888 6.888 0 00-.494-2.632 6.565 6.565 0 00-1.353-2.094 6.21 6.21 0 00-2.05-1.4 6.452 6.452 0 00-2.56-.509 6.347 6.347 0 00-2.545.509 6.24 6.24 0 00-2.036 1.4 6.548 6.548 0 00-1.353 2.094 6.869 6.869 0 00-.495 2.632 6.9 6.9 0 00.494 2.618 6.5 6.5 0 001.353 2.109 6.232 6.232 0 002.036 1.4 6.347 6.347 0 002.545.509 6.452 6.452 0 002.56-.509 6.2 6.2 0 002.05-1.4 6.52 6.52 0 001.353-2.109 6.921 6.921 0 00.493-2.618zm32.508.029A11.181 11.181 0 0170.5 14.7a9.654 9.654 0 01-5.367 5.5 10.335 10.335 0 01-4.071.8 11.049 11.049 0 01-4.247-.814 10.4 10.4 0 01-5.7-5.555 10.152 10.152 0 01-.843-4.13 10.375 10.375 0 013.1-7.46A10.583 10.583 0 0156.788.814 10.97 10.97 0 0161.005 0a11.4 11.4 0 014.77 1.018 10.089 10.089 0 013.693 2.792l-2.936 2.7a7.54 7.54 0 00-2.488-1.963 6.878 6.878 0 00-3.039-.684 6.345 6.345 0 00-2.545.509 6.234 6.234 0 00-2.036 1.4 6.352 6.352 0 00-1.338 2.094 7.064 7.064 0 00-.479 2.632 6.978 6.978 0 00.494 2.646 6.382 6.382 0 001.367 2.109 6.309 6.309 0 002.079 1.4 6.555 6.555 0 002.574.509 5.912 5.912 0 003.708-1.193 5 5 0 001.935-3.054h-6.021V9.249h10.529zM100 10.5a10.186 10.186 0 01-.843 4.116 10.367 10.367 0 01-5.7 5.57 11.4 11.4 0 01-8.463 0 10.359 10.359 0 01-5.7-5.57 10.186 10.186 0 01-.843-4.116 10.184 10.184 0 01.843-4.116 10.362 10.362 0 015.7-5.57 11.4 11.4 0 018.463 0 10.37 10.37 0 015.7 5.57A10.184 10.184 0 01100 10.5zm-4.334 0a6.87 6.87 0 00-.495-2.632 6.556 6.556 0 00-1.353-2.094 6.208 6.208 0 00-2.05-1.4 6.452 6.452 0 00-2.559-.509 6.348 6.348 0 00-2.546.509 6.242 6.242 0 00-2.036 1.4 6.537 6.537 0 00-1.352 2.094 6.87 6.87 0 00-.495 2.632 6.9 6.9 0 00.495 2.618 6.493 6.493 0 001.352 2.109 6.234 6.234 0 002.036 1.4 6.348 6.348 0 002.546.509 6.452 6.452 0 002.559-.509 6.2 6.2 0 002.05-1.4 6.512 6.512 0 001.353-2.109 6.9 6.9 0 00.495-2.618z"/></svg>