<svg xmlns="http://www.w3.org/2000/svg" viewBox="0 0 600 340" width="600" height="340"><path d="M140 202v-64h13.336v52.296h35.227V202zm137.484-32a31.867 31.867 0 01-2.668 12.937 32.942 32.942 0 01-7.22 10.515 33.424 33.424 0 01-10.806 6.993 36.257 36.257 0 01-26.765 0 33.428 33.428 0 01-10.807-6.993 32.986 32.986 0 01-7.22-10.515 32.697 32.697 0 010-25.873 33.018 33.018 0 017.22-10.515 33.479 33.479 0 0110.807-6.994 36.257 36.257 0 0126.765 0 33.474 33.474 0 0110.806 6.994 32.974 32.974 0 017.22 10.515A31.87 31.87 0 01277.484 170zm-13.704 0a21.582 21.582 0 00-1.562-8.274 20.667 20.667 0 00-4.279-6.583 19.66 19.66 0 00-6.484-4.389 20.53 20.53 0 00-8.094-1.599 20.192 20.192 0 00-8.048 1.6 19.76 19.76 0 00-6.437 4.388 20.563 20.563 0 00-4.278 6.583 22.548 22.548 0 000 16.503 20.414 20.414 0 004.278 6.628 19.714 19.714 0 006.437 4.389 20.16 20.16 0 008.048 1.6 20.497 20.497 0 008.094-1.6 19.616 19.616 0 006.484-4.389 20.515 20.515 0 004.28-6.628A21.676 21.676 0 00263.78 170zm104.089.091a34.97 34.97 0 01-2.437 13.12 30.445 30.445 0 01-16.97 17.28 32.898 32.898 0 01-12.878 2.514 35.111 35.111 0 01-13.428-2.56 32.78 32.78 0 01-18.026-17.463A31.734 31.734 0 01301.462 170a32.228 32.228 0 012.62-12.982 32.576 32.576 0 017.175-10.469 33.483 33.483 0 0110.807-6.994 34.868 34.868 0 0113.337-2.56 36.226 36.226 0 0115.083 3.2 31.907 31.907 0 0111.68 8.777l-9.288 8.503a23.758 23.758 0 00-7.865-6.171 21.872 21.872 0 00-9.61-2.149 20.18 20.18 0 00-8.047 1.6 19.768 19.768 0 00-6.44 4.388 20.016 20.016 0 00-4.231 6.583 22.093 22.093 0 00-1.517 8.274 21.844 21.844 0 001.564 8.32 19.692 19.692 0 0010.9 11.017 20.818 20.818 0 008.14 1.6 18.784 18.784 0 0011.725-3.749 15.704 15.704 0 006.118-9.6h-19.04v-11.52h33.296zM460 170a31.867 31.867 0 01-2.667 12.937 33.004 33.004 0 01-7.221 10.515 33.412 33.412 0 01-10.808 6.993 36.255 36.255 0 01-26.764 0 33.433 33.433 0 01-10.808-6.993 33 33 0 01-7.218-10.515 32.708 32.708 0 010-25.873 33.032 33.032 0 017.218-10.515 33.483 33.483 0 0110.808-6.994 36.255 36.255 0 0126.764 0 33.462 33.462 0 0110.808 6.994 33.037 33.037 0 017.22 10.515A31.87 31.87 0 01460 170zm-13.705 0a21.545 21.545 0 00-1.562-8.274 20.648 20.648 0 00-4.279-6.583 19.634 19.634 0 00-6.484-4.389 20.525 20.525 0 00-8.094-1.599 20.18 20.18 0 00-8.046 1.6 19.768 19.768 0 00-6.44 4.388 20.61 20.61 0 00-4.276 6.583 22.548 22.548 0 000 16.503 20.46 20.46 0 004.276 6.628 19.723 19.723 0 006.44 4.389 20.148 20.148 0 008.046 1.6 20.492 20.492 0 008.094-1.6 19.59 19.59 0 006.484-4.389 20.497 20.497 0 004.279-6.628 21.639 21.639 0 001.562-8.229z"/></svg>