<svg xmlns="http://www.w3.org/2000/svg" width="28" height="28" viewBox="0 0 28 28"><path fill="#444" d="M5.453 9.766V25.25H.297V9.766h5.156zm.328-4.782Q5.8 6.124 5 6.89t-2.117.766h-.03Q1.57 7.656.79 6.89T0 4.984Q0 3.828.805 3.07t2.102-.758 2.078.758.797 1.914zM24 16.374v8.876h-5.14v-8.28q0-1.642-.634-2.57t-1.977-.93q-.99 0-1.65.538t-.99 1.336q-.18.47-.18 1.266v8.64H8.29q.03-6.233.03-10.108t-.015-4.625l-.016-.75h5.14v2.25h-.03q.31-.5.64-.875t.882-.812 1.357-.68 1.79-.242q2.67 0 4.296 1.773t1.63 5.2z"/></svg>