<svg xmlns="http://www.w3.org/2000/svg" width="28" height="28" viewBox="0 0 28 28"><path fill="#444" d="M8 20q0-.828-.586-1.414T6 18t-1.414.586T4 20t.586 1.414T6 22t1.414-.586T8 20zm5.484 1.47q-.203-3.626-2.766-6.19T4.53 12.516q-.22-.016-.375.14t-.156.36v2q0 .203.13.344t.33.155q2.406.172 4.125 1.89t1.89 4.126q.017.21.157.34t.343.138h2q.205 0 .36-.155t.14-.375zm6 .014q-.078-2.406-.875-4.648t-2.18-4.062-3.21-3.204-4.06-2.18-4.65-.87q-.22-.017-.36.14-.15.153-.15.357v2q0 .202.14.343t.345.16q3.187.11 5.906 1.74t4.353 4.35 1.742 5.908q.016.203.156.344t.345.14h2q.203 0 .36-.153.17-.14.14-.36zM24 6.5v15q0 1.86-1.32 3.18T19.5 26h-15q-1.86 0-3.18-1.32T0 21.5v-15q0-1.86 1.32-3.18T4.5 2h15q1.86 0 3.18 1.32T24 6.5z"/></svg>