<svg xmlns="http://www.w3.org/2000/svg" width="28" height="28" viewBox="0 0 28 28"><path fill="#444" d="M15.172 19.437v3.297q0 1.047-.61 1.047-.358 0-.702-.34v-4.7q.344-.34.703-.34.61 0 .61 1.047zm5.28.016v.72h-1.405v-.72q0-1.062.703-1.062t.703 1.07zM5.36 16.047h1.67v-1.47H2.157v1.47h1.64v8.89H5.36v-8.89zm4.5 8.89h1.39V17.22H9.86v5.905q-.47.656-.892.656-.28 0-.328-.32-.016-.046-.016-.546v-5.69h-1.39v6.11q0 .765.124 1.14.187.578.906.578.75 0 1.594-.952v.844zm6.702-2.312v-3.078q0-1.14-.14-1.547-.267-.875-1.11-.875-.78 0-1.453.844v-3.4h-1.4v10.36h1.39v-.75q.703.857 1.453.857.844 0 1.11-.86.14-.42.14-1.56zm5.282-.156v-.21h-1.422q0 .795-.03.95-.11.56-.626.56-.72 0-.72-1.076v-1.36h2.798V19.73q0-1.234-.422-1.813-.61-.798-1.656-.798-1.062 0-1.672.792-.438.577-.438 1.812v2.703q0 1.234.453 1.813.6.797 1.68.797 1.123 0 1.685-.83.28-.422.33-.844.03-.14.03-.905zm-9.5-14.27V4.92q0-1.08-.672-1.08T11 4.924v3.28q0 1.094.672 1.094t.672-1.094zm11.234 11.73q0 3.654-.406 5.47-.22.92-.906 1.544t-1.594.72Q17.797 28 12 28t-8.672-.327q-.906-.094-1.602-.72t-.898-1.546q-.406-1.75-.406-5.47 0-3.655.406-5.468.22-.93.906-1.55t1.61-.74q2.858-.31 8.656-.31t8.67.313q.903.11 1.6.734t.9 1.547q.404 1.75.404 5.468zM7.984 0h1.594l-1.89 6.234v4.234H6.123V6.234q-.22-1.156-.953-3.313Q4.594 1.32 4.156 0H5.81l1.11 4.108zm5.782 5.203v2.734q0 1.266-.438 1.844-.578.8-1.656.8-1.047 0-1.64-.79-.44-.594-.44-1.844v-2.74q0-1.25.44-1.827.593-.798 1.64-.798 1.078 0 1.656.797.438.577.438 1.827zM19 2.673v7.796h-1.422v-.86q-.828.97-1.61.97-.718 0-.92-.58-.126-.38-.126-1.17V2.67h1.422v5.734q0 .516.016.547.047.35.328.35.422 0 .89-.67V2.68H19z"/></svg>